<svg xmlns="http://www.w3.org/2000/svg" width="13.637" height="19.832" viewBox="0 0 13.637 19.832">
  <g id="Group_75" data-name="Group 75" transform="translate(-899 -3408.584)">
    <g id="Group_48" data-name="Group 48" transform="translate(819.032 3408.585)">
      <path id="Path_29" data-name="Path 29" d="M92.657,3.4A6.73,6.73,0,0,0,86.938,0c-.1,0-.2,0-.305,0A6.73,6.73,0,0,0,80.915,3.4a6.9,6.9,0,0,0-.09,6.822l4.918,9,.007.012a1.2,1.2,0,0,0,2.074,0l.007-.012,4.918-9a6.9,6.9,0,0,0-.09-6.822Zm-5.871,5.59A2.789,2.789,0,1,1,89.575,6.2,2.792,2.792,0,0,1,86.786,8.986Z" transform="translate(0 0)" fill="#9e793c"/>
    </g>
  </g>
</svg>
