<svg xmlns="http://www.w3.org/2000/svg" width="32.516" height="47.287" viewBox="0 0 32.516 47.287">
  <g id="Group_48" data-name="Group 48" transform="translate(-79.968 0)">
    <path id="Path_29" data-name="Path 29" d="M110.225,8.1A16.047,16.047,0,0,0,96.589,0c-.242,0-.486,0-.728,0A16.047,16.047,0,0,0,82.226,8.1a16.462,16.462,0,0,0-.215,16.266L93.737,45.826l.016.028a2.85,2.85,0,0,0,4.945,0l.016-.028L110.44,24.363A16.463,16.463,0,0,0,110.225,8.1Zm-14,13.329a6.65,6.65,0,1,1,6.65-6.65A6.657,6.657,0,0,1,96.225,21.426Z" fill="#9e793c"/>
  </g>
</svg>
