<svg xmlns="http://www.w3.org/2000/svg" width="13.169" height="26.143" viewBox="0 0 13.169 26.143">
  <g id="Group_79" data-name="Group 79" transform="translate(0 -16.912)">
    <path id="Path_16" data-name="Path 16" d="M125.371,564.107v2.314a11.055,11.055,0,0,0-5.893,1.511,9.784,9.784,0,0,0-3.709,3.974,11.506,11.506,0,0,0,0,10.577,9.826,9.826,0,0,0,3.7,3.973,11.022,11.022,0,0,0,5.9,1.516v2.279a14.122,14.122,0,0,1-5.664-1.076,11.828,11.828,0,0,1-4.153-2.934,12.558,12.558,0,0,1-2.511-4.2,14.167,14.167,0,0,1-.84-4.828,14.406,14.406,0,0,1,.84-4.879,12.606,12.606,0,0,1,2.494-4.208,11.737,11.737,0,0,1,4.157-2.938A14.159,14.159,0,0,1,125.371,564.107Z" transform="translate(-112.202 -547.195)" fill="#9e793c"/>
  </g>
</svg>
