<svg xmlns="http://www.w3.org/2000/svg" width="222.035" height="115.549" viewBox="0 0 222.035 115.549">
  <g id="Group_74" data-name="Group 74" transform="translate(-385.511 -115)">
    <g id="Group_47" data-name="Group 47" transform="translate(330.199 -386.764)">
      <path id="Path_1" data-name="Path 1" d="M62.382,585.671q13.837-9.889,27.675-19.775-8.619,8.329-17.245,16.659c-3.451,3.333,1.764,7.76,5.67,4.87q2.683-1.981,5.36-3.964a3.45,3.45,0,0,0,.591.746,3.714,3.714,0,0,0,5.482,1.62q4.228-2.559,8.423-5.164c-.162.162-.33.32-.494.481-3.412,3.4,1.693,7.662,5.672,4.873.714-.5,1.434-1,2.148-1.5a4.138,4.138,0,0,0,6.153.8q7.325-5.749,14.768-11.386L104.4,595.016c-2.873,2.73,1.005,7.856,4.858,5.41q12.228-7.76,24.452-15.52a2.659,2.659,0,0,0,.3,1.982q-3.175,2.382-6.342,4.768c-2.123,1.6-1.141,4.213.808,5.381l-3.163,2.847c-3.572,3.215,1.9,7.9,5.671,4.869q19.715-15.834,40.093-31.035-13.023,11.32-26.046,22.642c-3.742,3.252,1.711,7.509,5.669,4.872q12.824-8.549,25.643-17.09c.517,2.235,4.052,3.813,6.851,1.947l.691-.46c-.021.02-.045.041-.064.062a3.829,3.829,0,0,0-.955,1.338q-2.134,1.645-4.273,3.287c-3.884,2.984,1.766,7.69,5.67,4.872q2.027-1.466,4.057-2.928c-.016.128-.028.258-.041.388-.2,1.973,2.32,3.7,4.541,3.484a4.35,4.35,0,0,0,6.763,1.764q34.019-27.982,66.364-57.413c3.008-2.736-.931-7.665-4.858-5.41q-7.194,4.135-14.207,8.476c2.26-2.415.191-5.139-2.609-5.458a56.832,56.832,0,0,0,3.4-4.755c1.765-2.778-2.064-6.895-5.486-4.713q-10.825,6.9-21.4,14.081l15.923-15.229c3.546-3.39-1.673-7.525-5.673-4.871q-5.538,3.682-11.033,7.417c-.07-2.425-4.026-4.512-7.015-2.517q-5.529,3.691-11.017,7.429a4.1,4.1,0,0,0-5.767-1.957c-14.55,8.184-25.245,9.847-18.968,4.34,3.065-2.689-1.054-7.776-4.861-5.408q-8.591,5.341-17.1,10.785,10.564-9.41,21.589-18.434c3.226-2.628-1.1-7.731-4.86-5.409Q156.7,528.3,141.838,538.285a4.444,4.444,0,0,0-4.081-2.626q3.353-3.117,6.67-6.24c2.957-2.79-.842-7.569-4.858-5.41q-2.7,1.451-5.333,2.978a4.517,4.517,0,0,0-4.489.572l-23.283,17.049q10.125-10.313,20.624-20.352c3.443-3.289-2.211-8.175-5.672-4.87-.677.648-1.348,1.3-2.024,1.953a3.988,3.988,0,0,0-6.268-1.014Q83.2,549.927,56.082,581.5C53.191,584.858,59.142,587.984,62.382,585.671Z" transform="translate(0 -8.802)" fill="#9e793c" opacity="0.15"/>
      <path id="Path_2" data-name="Path 2" d="M71.9,536.912H275.6v79.445H227.285v-1.338h46.976V538.252H73.233v76.767H132.3v1.338H71.9Z" transform="translate(-8.851 -18.76)" fill="#9e793c"/>
      <g id="Group_1" data-name="Group 1" transform="translate(118.643 576.544)">
        <path id="Path_3" data-name="Path 3" d="M213.774,667.611q0,.289-.014.594a5.436,5.436,0,0,0,.014.646.347.347,0,0,1-.093.236.4.4,0,0,1-.251.131c-.245.038-.368-.052-.368-.262a4.98,4.98,0,0,1-.027-.5v-.449l-.3.724c-.115.274-.242.577-.383.91q-.685,1.662-1.674,3.955t-2.149,4.879q.765-.185,1.5-.33c.492-.1.983-.189,1.477-.276.14-.07.272-.133.394-.185s.255-.114.4-.185q2.4-1.187,4.534-2.438t3.877-2.465a15.457,15.457,0,0,0,3.677-3.3,4.931,4.931,0,0,0,1.147-2.823,2.813,2.813,0,0,0-1.371-2.372,8.964,8.964,0,0,0-4.035-1.239,22.785,22.785,0,0,0-5.313.172,37.871,37.871,0,0,0-6.644,1.582,56.956,56.956,0,0,0-7.661,3.191,68.8,68.8,0,0,0-8.384,5,.376.376,0,0,1-.278.093.3.3,0,0,1-.224-.119.284.284,0,0,1-.053-.236.313.313,0,0,1,.159-.212,70.423,70.423,0,0,1,8.542-5.089A57.208,57.208,0,0,1,208.092,664a38.609,38.609,0,0,1,6.777-1.595,23.592,23.592,0,0,1,5.445-.172.818.818,0,0,0,.185.027.744.744,0,0,1,.184.026.325.325,0,0,1,.237-.079,13.839,13.839,0,0,1,2.532.448,7.271,7.271,0,0,1,1.9.817,3.619,3.619,0,0,1,1.714,2.268,4.29,4.29,0,0,1-.711,3.084,11.782,11.782,0,0,1-1.677,2.043,19.676,19.676,0,0,1-2.7,2.2q-1.661,1.16-3.625,2.293t-4.179,2.215h.183a9.892,9.892,0,0,1,3.02.317,5.717,5.717,0,0,1,2.122,1.079,4.5,4.5,0,0,1,1.345,1.835,6.812,6.812,0,0,1,.449,2.385q1.266-.237,2.557-.487c.861-.167,1.758-.32,2.689-.463a.346.346,0,0,1,.278.053.254.254,0,0,1,.092.2.43.43,0,0,1-.079.238.364.364,0,0,1-.264.145q-1.4.211-2.716.461c-.879.168-1.74.328-2.583.488a14.271,14.271,0,0,1-1.4,5.035,22.681,22.681,0,0,1-1.979,3.468,28.171,28.171,0,0,1-2.663,3.308A26.36,26.36,0,0,1,212,698.565a22.312,22.312,0,0,1-3.679,2.3,19.435,19.435,0,0,1-3.533,1.345,18.233,18.233,0,0,1-2.031.434q-1.082.171-2.189.238a19.811,19.811,0,0,1-2.176.012,15.877,15.877,0,0,1-1.963-.21,8.446,8.446,0,0,1-3.666-1.557,4.607,4.607,0,0,1-1.134-1.251,3.3,3.3,0,0,1-.474-1.517,4.319,4.319,0,0,1,.3-1.912,7.53,7.53,0,0,1,1.3-2.122,15.054,15.054,0,0,1,2.636-2.334,28.5,28.5,0,0,1,4.061-2.358c.141-.564.3-1.173.488-1.833s.4-1.383.645-2.175a.37.37,0,0,1,.185-.225.477.477,0,0,1,.263-.052.307.307,0,0,1,.211.1.244.244,0,0,1,.027.25q-.606,2.056-1.028,3.56c.333-.159.676-.312,1.028-.462s.72-.294,1.107-.434q.766-1.637,1.609-3.493t1.714-3.81q-1.106.394-2.215.71l-.026.026h-.027c-.439.142-.87.268-1.292.384s-.854.223-1.292.328a14.589,14.589,0,0,1-1.529.356,6.194,6.194,0,0,1-.871.093c-.458-.034-.681-.127-.672-.277s.207-.366.593-.645a18.023,18.023,0,0,1,1.688-.844c.79-.335,1.756-.7,2.9-1.108s2.372-.781,3.69-1.133q1.082-2.452,2.044-4.68t1.727-3.967q.685-1.608,1.12-2.584a11.837,11.837,0,0,1,.514-1.08,1.3,1.3,0,0,1,.686-.593.6.6,0,0,1,.554.145,1.281,1.281,0,0,1,.356.619A2.835,2.835,0,0,1,213.774,667.611Zm-14.5,22.833a26.643,26.643,0,0,0-3.586,2.136,14.339,14.339,0,0,0-2.372,2.109,6.766,6.766,0,0,0-1.187,1.9,3.6,3.6,0,0,0-.265,1.661,2.931,2.931,0,0,0,.422,1.319,4.072,4.072,0,0,0,.976,1.081,7.782,7.782,0,0,0,3.4,1.422,15.1,15.1,0,0,0,4.931.041,18.532,18.532,0,0,0,5.589-1.78,22.035,22.035,0,0,0,3.547-2.227,26.881,26.881,0,0,0,3.138-2.822,24.816,24.816,0,0,0,2.571-3.2,24.274,24.274,0,0,0,1.9-3.347,14.285,14.285,0,0,0,1.319-4.562q-4.668.948-8.346,1.95T204.7,688.15l-.42.16c-.141.053-.283.1-.422.157q-.713,1.45-1.384,2.677t-1.266,2.135a12.643,12.643,0,0,1-1.069,1.449,1.427,1.427,0,0,1-.79.568.52.52,0,0,1-.567-.237,1.709,1.709,0,0,1-.2-.779,5.2,5.2,0,0,1,.066-1.081c.062-.4.131-.777.211-1.146s.158-.7.238-1S199.237,690.551,199.271,690.445Zm0,3.745a7.551,7.551,0,0,0,1.029-1.636q.712-1.344,1.687-3.347c-.351.14-.69.285-1.015.434s-.636.294-.935.436c-.211.737-.4,1.424-.567,2.055A6.77,6.77,0,0,0,199.271,694.19Zm6.8-13.948c.035-.087.075-.175.118-.264s.083-.175.119-.262q-1.8.5-3.335,1.053t-2.651,1.028a6.58,6.58,0,0,0-1.029.475q.29-.052.647-.132t.8-.21q1.265-.318,2.53-.713h.026q.686-.21,1.384-.462C205.157,680.587,205.617,680.416,206.075,680.241Zm6.38-1.845a1.64,1.64,0,0,0-.224.1,1.925,1.925,0,0,1-.224.1q-1.055.476-2.135.911t-2.188.856q-.846,1.9-1.7,3.744t-1.7,3.532l.237-.079q2.951-1.053,6.7-2.069t8.464-1.965v-.209a5.975,5.975,0,0,0-.383-2.177,4.08,4.08,0,0,0-1.2-1.674,5.352,5.352,0,0,0-1.608-.856,7.877,7.877,0,0,0-2.241-.384,1.869,1.869,0,0,1-.317.027,2.065,2.065,0,0,0-.316.026c-.193.02-.387.032-.581.04A4.367,4.367,0,0,0,212.455,678.4Zm-3.348.605c-.142.035-.291.07-.449.1l-.448.107-.105.211c.175-.071.347-.14.514-.211S208.949,679.071,209.108,679Z" transform="translate(-191.138 -662.144)" fill="#9e793c"/>
        <path id="Path_4" data-name="Path 4" d="M271.158,698.729a1.684,1.684,0,0,1,1.16.17.605.605,0,0,1,.211.672,2.057,2.057,0,0,1-.593.911,4.967,4.967,0,0,1-1.252.883,10.33,10.33,0,0,1-.961.422,9.515,9.515,0,0,1-.99.316,1.591,1.591,0,0,0-.091.158,1.428,1.428,0,0,1-.092.16q-.185.341-.409.778c-.149.291-.29.58-.422.87s-.246.576-.343.855a7.908,7.908,0,0,0-.224.766,1.366,1.366,0,0,0,.013.962.567.567,0,0,0,.515.278,1.983,1.983,0,0,0,.817-.225,8.662,8.662,0,0,0,.95-.526c.316-.2.619-.4.91-.607s.522-.365.7-.487q.921-.608,2.043-1.451t2.492-1.846a.355.355,0,0,1,.264-.091.3.3,0,0,1,.211.1.335.335,0,0,1,.079.223.29.29,0,0,1-.158.236q-1.346,1-2.479,1.846t-2.058,1.477l-1.173.8a12.362,12.362,0,0,1-1.569.911,5.083,5.083,0,0,1-1.542.486,1.052,1.052,0,0,1-1.093-.46,1.919,1.919,0,0,1-.317-1.255,6.75,6.75,0,0,1,.3-1.727,10.338,10.338,0,0,1,.79-1.885,9.926,9.926,0,0,1,1.2-1.767,7.585,7.585,0,0,1,1.477-1.345A3.453,3.453,0,0,1,271.158,698.729Zm-.238,1a4.39,4.39,0,0,0-.949.751,9.758,9.758,0,0,0-.712.8,6.091,6.091,0,0,0,1.108-.474,5.365,5.365,0,0,0,1.066-.685,1.377,1.377,0,0,0,.409-.489c.036-.114-.03-.172-.2-.172A1.714,1.714,0,0,0,270.92,699.731Z" transform="translate(-230.961 -681.661)" fill="#9e793c"/>
        <path id="Path_5" data-name="Path 5" d="M288.115,707.356a3.848,3.848,0,0,1-.817.461,1.343,1.343,0,0,1-.766.106.852.852,0,0,1-.568-.436,2.326,2.326,0,0,1-.2-1.212,6.423,6.423,0,0,1,.278-1.622,7.632,7.632,0,0,1,.7-1.607,8.118,8.118,0,0,1,1.055-1.438,6.509,6.509,0,0,1,1.319-1.106,5.071,5.071,0,0,1,.962-.463,2.925,2.925,0,0,1,.963-.171,1.88,1.88,0,0,1,.9.224,2.028,2.028,0,0,1,.739.725,5.459,5.459,0,0,1,.79-.908,2.042,2.042,0,0,1,.739-.475.388.388,0,0,1,.488.2,1.854,1.854,0,0,1,.04,1.106,6.226,6.226,0,0,1-.251.938c-.132.4-.272.82-.422,1.278s-.295.923-.436,1.4a6.767,6.767,0,0,0-.263,1.292,1.21,1.21,0,0,0,.21,1.029c.194.176.6.168,1.214-.026a6.911,6.911,0,0,0,1.741-.9q.921-.634,1.779-1.346t1.544-1.344c.455-.423.8-.72,1.028-.9a.372.372,0,0,1,.276-.091.365.365,0,0,1,.237.1.3.3,0,0,1,.093.223.3.3,0,0,1-.132.236q-.448.345-1.252,1.057t-1.78,1.49q-.976.777-2.03,1.476a8.716,8.716,0,0,1-2,1.016,1.443,1.443,0,0,1-1.4-.055,1.63,1.63,0,0,1-.555-1.067,5.751,5.751,0,0,1,.014-1.595q.119-.9.29-1.662c.115-.51.22-.929.317-1.252s.127-.454.091-.385q-.447.712-.988,1.505t-1.173,1.554a18.746,18.746,0,0,1-1.333,1.45A10.417,10.417,0,0,1,288.115,707.356ZM292.2,701.5q-.344-.818-.923-.818a2.094,2.094,0,0,0-1.187.422,4.774,4.774,0,0,0-.975.922,10.066,10.066,0,0,0-.871,1.252,10.3,10.3,0,0,0-.672,1.359,8.8,8.8,0,0,0-.409,1.24c-.088.422-.053.71.105.868s.448.081.87-.237a9.8,9.8,0,0,0,1.213-1.08,14.917,14.917,0,0,0,1.082-1.266q.5-.66.936-1.344T292.2,701.5Z" transform="translate(-241.644 -682.035)" fill="#9e793c"/>
        <path id="Path_6" data-name="Path 6" d="M324.969,704.75a6.948,6.948,0,0,1,.026-2.635q-.606,1-1.292,2.017a21.19,21.19,0,0,1-1.476,1.936,11.766,11.766,0,0,1-.884.9,4.774,4.774,0,0,1-.949.7,1.174,1.174,0,0,1-.844.159c-.254-.062-.435-.3-.54-.725a5.147,5.147,0,0,1-.145-1.715,11.478,11.478,0,0,1,.3-1.925q.238-.978.554-1.913t.632-1.673a.894.894,0,0,1,.435-.474,1.565,1.565,0,0,1,.658-.212.767.767,0,0,1,.528.119c.132.1.145.268.041.513a15.082,15.082,0,0,0-.569,1.452q-.276.817-.5,1.7t-.4,1.727a12.626,12.626,0,0,0-.224,1.5c-.035.353.039.522.224.513s.558-.347,1.12-1.014q.554-.633,1.107-1.385t1.068-1.557c.343-.536.664-1.075.963-1.621s.563-1.054.791-1.529a.783.783,0,0,1,.475-.448.9.9,0,0,1,.553.014.907.907,0,0,1,.421.289.415.415,0,0,1,.106.384,6.014,6.014,0,0,1-.2.777q-.172.567-.33,1.266t-.264,1.409a4.116,4.116,0,0,0-.026,1.214q.1.607.5.711a1.453,1.453,0,0,0,.936-.118,7.283,7.283,0,0,0,1.188-.646,14.025,14.025,0,0,0,1.239-.911c.395-.324.76-.629,1.094-.908s.581-.484.738-.608a.448.448,0,0,1,.29-.09.3.3,0,0,1,.21.105.325.325,0,0,1,.081.223.291.291,0,0,1-.159.236q-.4.318-1.04.844t-1.4,1.082a16.744,16.744,0,0,1-1.543,1.015,5,5,0,0,1-1.488.607,1.837,1.837,0,0,1-1.24-.131A1.715,1.715,0,0,1,324.969,704.75Z" transform="translate(-259.302 -681.882)" fill="#9e793c"/>
        <path id="Path_7" data-name="Path 7" d="M353.742,679.829q-.37.894-.871,1.965t-1.107,2.253c.422-.053.9-.1,1.425-.146s1.053-.078,1.581-.1,1.042-.03,1.543-.013a6.687,6.687,0,0,1,1.3.158,3.065,3.065,0,0,1,.581.224q.29.143.079.514a1,1,0,0,1-.435.3,6.03,6.03,0,0,1-.739.262c-.272.08-.536.159-.79.238s-.463.146-.621.2a.28.28,0,0,1-.276.012.325.325,0,0,1-.159-.172.288.288,0,0,1,.014-.225.414.414,0,0,1,.211-.2q.421-.159.87-.291l.9-.264a7.7,7.7,0,0,0-1.306-.117c-.5-.009-1.016,0-1.542.025s-1.056.065-1.583.117-1,.1-1.423.135a1.071,1.071,0,0,1-.132.235,1.022,1.022,0,0,0-.131.239q-.766,1.371-1.636,2.742t-1.766,2.638q-.21.527-.434,1.224a10.057,10.057,0,0,0-.344,1.4,6.1,6.1,0,0,0-.092,1.293,1.52,1.52,0,0,0,.33.949,1.234,1.234,0,0,0,.962.37,4.6,4.6,0,0,0,1.793-.489,13.238,13.238,0,0,0,1.805-.95q.937-.58,1.845-1.252t1.767-1.384q.859-.713,1.568-1.319a.38.38,0,0,1,.278-.091.352.352,0,0,1,.224.091.329.329,0,0,1,.092.212.261.261,0,0,1-.119.235q-.738.634-1.622,1.359t-1.819,1.409c-.624.459-1.257.884-1.9,1.28a15.194,15.194,0,0,1-1.86.988,7.25,7.25,0,0,1-2.583.7,2.122,2.122,0,0,1-1.491-.449,1.97,1.97,0,0,1-.606-1.306,7.136,7.136,0,0,1,.079-1.9,14.886,14.886,0,0,1,.554-2.215q.383-1.16.818-2.241c.29-.719.576-1.384.857-1.991s.508-1.095.685-1.464q-1.081.134-2.215.276t-2.373.331a.312.312,0,0,1-.277-.066.293.293,0,0,1-.093-.211.36.36,0,0,1,.08-.223.375.375,0,0,1,.263-.133q1.344-.184,2.571-.342t2.359-.29q.713-1.424,1.491-2.873a20.956,20.956,0,0,1,1.754-2.744,5.194,5.194,0,0,1,1.067-1.107c.326-.228.58-.308.766-.238s.272.3.263.7A5.852,5.852,0,0,1,353.742,679.829ZM349,687.476q.4-.608.764-1.252t.74-1.254a.83.83,0,0,0,.039-.09.833.833,0,0,1,.039-.094.494.494,0,0,1-.158.026.49.49,0,0,0-.158.027c-.229.456-.448.9-.66,1.331S349.188,687.036,349,687.476Zm1.951-3.35q.634-1.159,1.2-2.347t1.016-2.372q-.687,1.16-1.32,2.36t-1.239,2.385a1.277,1.277,0,0,0,.172-.012A1.091,1.091,0,0,1,350.946,684.126Z" transform="translate(-272.493 -670.275)" fill="#9e793c"/>
        <path id="Path_8" data-name="Path 8" d="M369.375,701.25a2.129,2.129,0,0,0-.331.475c-.166.28-.352.6-.552.949s-.4.711-.594,1.08-.334.66-.422.87a.971.971,0,0,0-.079.277.409.409,0,0,0,.026.264c.035.063.12.076.252.038a1.909,1.909,0,0,0,.593-.369,12.982,12.982,0,0,0,1.306-1.211q.618-.66,1.226-1.332T372.026,701a9.4,9.4,0,0,1,1.3-1.093,2.965,2.965,0,0,1,1.45-.672.837.837,0,0,1,.778.367,2.08,2.08,0,0,1,.277,1.055,8.522,8.522,0,0,1-.067,1.4,12.331,12.331,0,0,1-.249,1.383q-.159.66-.291,1.03,1.054-.58,2.2-1.173t2.411-1.2a.368.368,0,0,1,.278-.039.339.339,0,0,1,.183.145.252.252,0,0,1,.027.225.367.367,0,0,1-.2.2q-1.451.713-2.743,1.383t-2.478,1.332q-.368.975-.8,1.951c-.29.649-.6,1.292-.935,1.924a28.593,28.593,0,0,1-2.993,4.68,20.475,20.475,0,0,1-2.993,3.084,9.731,9.731,0,0,1-2.729,1.637,4.715,4.715,0,0,1-2.163.34,1.7,1.7,0,0,1-1.29-.763,2.14,2.14,0,0,1-.159-1.687,7.305,7.305,0,0,1,1.279-2.453,17.89,17.89,0,0,1,3.032-3.071,38.714,38.714,0,0,1,3.876-2.861q2.057-1.332,4.167-2.517c.053-.158.152-.431.3-.818s.3-.813.449-1.278.285-.937.408-1.412a6.327,6.327,0,0,0,.212-1.2.792.792,0,0,0-.159-.645c-.124-.105-.361-.027-.713.239a13.266,13.266,0,0,0-1.3,1.146q-.62.62-1.24,1.278T369.9,704.2a12.2,12.2,0,0,1-1.345,1.161,3.058,3.058,0,0,1-1.279.632.757.757,0,0,1-.91-.343,1.564,1.564,0,0,1-.131-.987,6.1,6.1,0,0,1,.316-1.28,9.148,9.148,0,0,1,.568-1.266,10.222,10.222,0,0,1,.593-.975,1.476,1.476,0,0,1,.752-.553,1.719,1.719,0,0,1,.765-.079.506.506,0,0,1,.422.262C369.713,700.916,369.621,701.074,369.375,701.25Zm2.241,7.778q.342-.606.633-1.24t.554-1.239q-1.873,1.108-3.7,2.293A37.462,37.462,0,0,0,365.6,711.4a15.471,15.471,0,0,0-3.323,3.481,4.321,4.321,0,0,0-.87,2.386,1,1,0,0,0,1.029.949,4.055,4.055,0,0,0,2.4-.831,16.26,16.26,0,0,0,3.243-2.952A26.674,26.674,0,0,0,371.616,709.028Z" transform="translate(-281.666 -681.94)" fill="#9e793c"/>
      </g>
      <g id="Group_3" data-name="Group 3" transform="translate(81.838 501.764)">
        <path id="Path_9" data-name="Path 9" d="M262.558,535.681a12.38,12.38,0,0,0-.871,2.491h1.994a9.008,9.008,0,0,1,1.058-2.491Z" transform="translate(-191.988 -519.867)" fill="#9e793c"/>
        <g id="Group_2" data-name="Group 2" transform="translate(67.626)">
          <path id="Path_10" data-name="Path 10" d="M362.167,501.818q1.017-.055,2.059-.054a20.977,20.977,0,0,1,2.114.106,33.442,33.442,0,0,1,5.805.4,27.986,27.986,0,0,1,5.375,1.363q1.391.482,2.675,1.071a22.342,22.342,0,0,1,2.567,1.393q.964.586,1.926,1.309a9,9,0,0,1,1.712,1.683,4.565,4.565,0,0,1,.723,1.473,2.4,2.4,0,0,1-.186,1.738,3.95,3.95,0,0,1-1.607,1.818,16.8,16.8,0,0,1-2.247,1.177,20.22,20.22,0,0,1-5.75,1.5,30.855,30.855,0,0,1-6.017.053,35.518,35.518,0,0,1-5.138-.266q-2.568-.322-5.081-.748-5.513-.965-10.86-1.981t-10.861-2.087q-.64-.16-1.284-.267c-.428-.07-.89-.159-1.389-.267-.108.108-.232.233-.375.374a2.455,2.455,0,0,1-.483.375.133.133,0,0,1-.213,0,.135.135,0,0,1,0-.215,3.711,3.711,0,0,1,.373-.322,3.185,3.185,0,0,0,.375-.32q-4.919-.964-9.788-1.953t-9.9-1.79q-3.366-.643-6.739-1.071l-6.74-.857q-3.372-.427-6.742-.642t-6.738-.107a57.53,57.53,0,0,0-6.313.348,37.684,37.684,0,0,0-6.312,1.257,24.547,24.547,0,0,0-5.4,2.247,21.324,21.324,0,0,0-4.655,3.53,14.349,14.349,0,0,0-3.4,5.484,44.655,44.655,0,0,0-1.63,6.285.684.684,0,0,1-.215.4.37.37,0,0,1-.589-.081.563.563,0,0,1-.055-.427,41.469,41.469,0,0,1,1.287-4.923,22.062,22.062,0,0,1,2.859-5.135,19.923,19.923,0,0,1,4.2-4.173,22.421,22.421,0,0,1,5.216-2.755,38.3,38.3,0,0,1,5.7-1.632,50.748,50.748,0,0,1,6.393-.775q3.237-.188,6.5-.055t6.527.482q3.262.348,6.472.776,4.016.48,7.971,1.1t7.974,1.365q3.636.642,7.22,1.392t7.223,1.5a30.712,30.712,0,0,1,3.69-2.594,42.478,42.478,0,0,1,4.013-2.113,46.281,46.281,0,0,1,8.666-3A56.064,56.064,0,0,1,362.167,501.818Zm18.939,11.232a2.627,2.627,0,0,0,.855-1.925,3.664,3.664,0,0,0-.642-1.846,7.023,7.023,0,0,0-1.5-1.6c-.609-.481-1.177-.9-1.712-1.257a25.463,25.463,0,0,0-5.217-2.408,31,31,0,0,0-6.123-1.364,37.225,37.225,0,0,0-6.795-.187,41.344,41.344,0,0,0-7.114,1.07,52.8,52.8,0,0,0-8.266,2.916,37.3,37.3,0,0,0-7.463,4.466q1.926.432,3.905.8t3.906.8q2.726.59,5.507,1.017t5.618,1.017q3.421.588,6.688,1.042a56.442,56.442,0,0,0,6.152.536,34.579,34.579,0,0,0,5.376-.24,14.109,14.109,0,0,0,4.36-1.231c.429-.214.864-.436,1.311-.669A3.664,3.664,0,0,0,381.106,513.05Zm3.153.108a2.612,2.612,0,0,0,.856-1.926,3.649,3.649,0,0,0-.642-1.846,7.049,7.049,0,0,0-1.5-1.6q-.91-.722-1.713-1.256a27.485,27.485,0,0,0-2.808-1.471,23.055,23.055,0,0,0-3.13-1.152,26.2,26.2,0,0,1,4.281,2.087q.961.59,1.926,1.311a9.067,9.067,0,0,1,1.711,1.684,4.528,4.528,0,0,1,.723,1.471,2.422,2.422,0,0,1-.187,1.741,3.936,3.936,0,0,1-1.606,1.818,17.256,17.256,0,0,1-2.246,1.177,9.158,9.158,0,0,1-.989.374c-.339.108-.668.214-.988.323a13.955,13.955,0,0,0,3.852-1.124c.426-.214.864-.436,1.308-.67A3.6,3.6,0,0,0,384.26,513.158Z" transform="translate(-259.326 -501.764)" fill="#9e793c"/>
          <path id="Path_11" data-name="Path 11" d="M262,548.946a2.38,2.38,0,1,1-2.382-2.381A2.381,2.381,0,0,1,262,548.946Z" transform="translate(-257.24 -525.676)" fill="#9e793c"/>
        </g>
        <path id="Path_12" data-name="Path 12" d="M179.249,575.07h7.719l1.488,3.94h-9.207V605.2h7.836v3.939H175.425V579.01H173.4l-1.255-3.94h3.283V564.315h11.659v3.824h-7.836Z" transform="translate(-144.194 -535.15)" fill="#9e793c"/>
        <path id="Path_13" data-name="Path 13" d="M220.108,578.195l8.362,17.1a13.838,13.838,0,0,1,1.62,6.027,6.715,6.715,0,0,1-3.021,5.881,13.278,13.278,0,0,1-7.676,2.072h-5.5v-3.939h5.618q6.275,0,6.275-4.013a13.76,13.76,0,0,0-1.854-6.027l-8.186-17.1a13.858,13.858,0,0,1-1.138-5.019,10.282,10.282,0,0,1,2-6.129,6.6,6.6,0,0,1,5.589-2.481h5.268v3.955l-3.9-.131a5.267,5.267,0,0,0-3.51,1.21,4.662,4.662,0,0,0-1.627,3.284,8.8,8.8,0,0,0,.424,2.255,20.534,20.534,0,0,0,.809,2.123A7.456,7.456,0,0,0,220.108,578.195Z" transform="translate(-166.478 -535.283)" fill="#9e793c"/>
        <path id="Path_14" data-name="Path 14" d="M261.7,609.143H257.88V564.315H261.7Z" transform="translate(-189.956 -535.15)" fill="#9e793c"/>
        <path id="Path_15" data-name="Path 15" d="M392.711,608.69a22.3,22.3,0,0,1-11.462-3.086,22.909,22.909,0,0,1-8.355-8.368,22.334,22.334,0,0,1-3.079-11.441,22.6,22.6,0,0,1,3.079-11.528,22.835,22.835,0,0,1,8.355-8.4,22.3,22.3,0,0,1,11.462-3.086,22.547,22.547,0,0,1,11.528,3.086,22.8,22.8,0,0,1,8.4,8.4,22.549,22.549,0,0,1,3.086,11.528,22.253,22.253,0,0,1-3.093,11.441,22.948,22.948,0,0,1-8.4,8.368A22.513,22.513,0,0,1,392.711,608.69Zm.125-4a18.433,18.433,0,0,0,9.459-2.539,18.861,18.861,0,0,0,6.89-6.888,18.922,18.922,0,0,0,1.08-16.759,19.075,19.075,0,0,0-10.13-10.143,18.549,18.549,0,0,0-7.3-1.451,18.742,18.742,0,0,0-9.555,2.538,18.957,18.957,0,0,0-6.956,6.91,18.645,18.645,0,0,0,0,18.891,18.962,18.962,0,0,0,6.956,6.9A18.738,18.738,0,0,0,392.835,604.692Z" transform="translate(-249.7 -534.332)" fill="#9e793c"/>
        <path id="Path_16" data-name="Path 16" d="M134.836,564.107v3.977a19,19,0,0,0-10.128,2.6,16.817,16.817,0,0,0-6.376,6.83,19.776,19.776,0,0,0,0,18.18,16.889,16.889,0,0,0,6.368,6.829,18.944,18.944,0,0,0,10.136,2.606v3.917a24.274,24.274,0,0,1-9.736-1.849,20.329,20.329,0,0,1-7.139-5.043,21.585,21.585,0,0,1-4.315-7.211,24.35,24.35,0,0,1-1.444-8.3,24.761,24.761,0,0,1,1.444-8.387,21.667,21.667,0,0,1,4.287-7.233,20.174,20.174,0,0,1,7.145-5.05A24.337,24.337,0,0,1,134.836,564.107Z" transform="translate(-112.202 -535.039)" fill="#9e793c"/>
        <path id="Path_17" data-name="Path 17" d="M331.834,564.107v3.977a19,19,0,0,0-10.128,2.6,16.809,16.809,0,0,0-6.375,6.83,19.773,19.773,0,0,0,0,18.18,16.885,16.885,0,0,0,6.368,6.829,18.944,18.944,0,0,0,10.135,2.606v3.917a24.275,24.275,0,0,1-9.735-1.849,20.328,20.328,0,0,1-7.139-5.043,21.585,21.585,0,0,1-4.315-7.211,24.35,24.35,0,0,1-1.444-8.3,24.761,24.761,0,0,1,1.444-8.387,21.667,21.667,0,0,1,4.287-7.233,20.177,20.177,0,0,1,7.145-5.05A24.338,24.338,0,0,1,331.834,564.107Z" transform="translate(-217.347 -535.039)" fill="#9e793c"/>
      </g>
    </g>
  </g>
</svg>
