<svg id="Group_46" data-name="Group 46" xmlns="http://www.w3.org/2000/svg" width="44.995" height="45.003" viewBox="0 0 44.995 45.003">
  <path id="Path_23" data-name="Path 23" d="M45.778,13.231a16.446,16.446,0,0,0-1.046-5.46,11.528,11.528,0,0,0-6.585-6.585A16.488,16.488,0,0,0,32.688.141C30.279.026,29.514,0,23.4,0s-6.875.026-9.275.132A16.448,16.448,0,0,0,8.67,1.178a10.98,10.98,0,0,0-3.992,2.6A11.08,11.08,0,0,0,2.085,7.763a16.487,16.487,0,0,0-1.046,5.459C.924,15.631.9,16.4.9,22.506s.026,6.875.132,9.275a16.445,16.445,0,0,0,1.046,5.46,11.527,11.527,0,0,0,6.585,6.585,16.49,16.49,0,0,0,5.46,1.046c2.4.106,3.165.132,9.275.132s6.875-.026,9.275-.132a16.442,16.442,0,0,0,5.459-1.046,11.511,11.511,0,0,0,6.585-6.585,16.5,16.5,0,0,0,1.046-5.46c.105-2.4.132-3.165.132-9.275S45.884,15.631,45.778,13.231ZM41.726,31.605a12.333,12.333,0,0,1-.774,4.176,7.465,7.465,0,0,1-4.273,4.273,12.382,12.382,0,0,1-4.176.773c-2.374.106-3.086.132-9.09.132s-6.725-.026-9.091-.132a12.331,12.331,0,0,1-4.176-.773,6.926,6.926,0,0,1-2.585-1.679A7,7,0,0,1,5.883,35.79a12.379,12.379,0,0,1-.773-4.176C5,29.24,4.977,28.528,4.977,22.524S5,15.8,5.109,13.433a12.327,12.327,0,0,1,.773-4.176A6.841,6.841,0,0,1,7.571,6.673a6.985,6.985,0,0,1,2.584-1.679,12.386,12.386,0,0,1,4.176-.774c2.374-.106,3.086-.132,9.09-.132s6.725.026,9.091.132a12.333,12.333,0,0,1,4.176.774,6.919,6.919,0,0,1,2.585,1.679,7,7,0,0,1,1.679,2.585,12.384,12.384,0,0,1,.774,4.176c.106,2.374.132,3.086.132,9.09S41.831,29.231,41.726,31.605Z" transform="translate(-0.898 0)" fill="#9e793c"/>
  <path id="Path_24" data-name="Path 24" d="M136.74,124.281A11.561,11.561,0,1,0,148.3,135.842,11.564,11.564,0,0,0,136.74,124.281Zm0,19.06a7.5,7.5,0,1,1,7.5-7.5A7.5,7.5,0,0,1,136.74,143.341Z" transform="translate(-114.234 -113.336)" fill="#9e793c"/>
  <path id="Path_25" data-name="Path 25" d="M367.659,91.145a2.7,2.7,0,1,1-2.7-2.7A2.7,2.7,0,0,1,367.659,91.145Z" transform="translate(-330.436 -80.657)" fill="#9e793c"/>
</svg>
