<svg xmlns="http://www.w3.org/2000/svg" width="16.503" height="16.506" viewBox="0 0 16.503 16.506">
  <g id="Group_78" data-name="Group 78" transform="translate(-1404.924 -21.45)">
    <g id="Group_16" data-name="Group 16" transform="translate(1404.026 21.45)">
      <path id="Path_23" data-name="Path 23" d="M17.359,4.853a6.032,6.032,0,0,0-.384-2A4.228,4.228,0,0,0,14.56.435a6.047,6.047,0,0,0-2-.384C11.674.01,11.394,0,9.153,0s-2.522.01-3.4.048a6.033,6.033,0,0,0-2,.384,4.027,4.027,0,0,0-1.464.954,4.064,4.064,0,0,0-.951,1.461,6.047,6.047,0,0,0-.384,2C.908,5.733.9,6.014.9,8.255s.01,2.522.048,3.4a6.032,6.032,0,0,0,.384,2,4.228,4.228,0,0,0,2.415,2.415,6.048,6.048,0,0,0,2,.384c.88.039,1.161.048,3.4.048s2.522-.01,3.4-.048a6.03,6.03,0,0,0,2-.384,4.222,4.222,0,0,0,2.415-2.415,6.051,6.051,0,0,0,.384-2c.039-.88.048-1.161.048-3.4S17.4,5.733,17.359,4.853Zm-1.486,6.739a4.524,4.524,0,0,1-.284,1.532,2.738,2.738,0,0,1-1.567,1.567,4.541,4.541,0,0,1-1.532.284c-.871.039-1.132.048-3.334.048s-2.467-.01-3.334-.048a4.523,4.523,0,0,1-1.532-.284,2.54,2.54,0,0,1-.948-.616,2.567,2.567,0,0,1-.616-.948A4.54,4.54,0,0,1,2.443,11.6c-.039-.871-.048-1.132-.048-3.334s.01-2.467.048-3.334A4.521,4.521,0,0,1,2.726,3.4a2.509,2.509,0,0,1,.619-.948,2.562,2.562,0,0,1,.948-.616,4.543,4.543,0,0,1,1.532-.284C6.7,1.509,6.957,1.5,9.159,1.5s2.467.01,3.334.048a4.524,4.524,0,0,1,1.532.284,2.538,2.538,0,0,1,.948.616,2.566,2.566,0,0,1,.616.948,4.542,4.542,0,0,1,.284,1.532c.039.871.048,1.132.048,3.334S15.911,10.722,15.873,11.592Z" transform="translate(0 0)" fill="#fce7e6"/>
      <path id="Path_24" data-name="Path 24" d="M129.419,124.281a4.24,4.24,0,1,0,4.24,4.24A4.241,4.241,0,0,0,129.419,124.281Zm0,6.991a2.751,2.751,0,1,1,2.751-2.751A2.751,2.751,0,0,1,129.419,131.272Z" transform="translate(-120.266 -120.266)" fill="#fce7e6"/>
      <path id="Path_25" data-name="Path 25" d="M364.241,89.436a.99.99,0,1,1-.99-.99A.99.99,0,0,1,364.241,89.436Z" transform="translate(-349.69 -85.589)" fill="#fce7e6"/>
    </g>
  </g>
</svg>
