<svg xmlns="http://www.w3.org/2000/svg" width="129.179" height="67.226" viewBox="0 0 129.179 67.226">
  <g id="Group_71" data-name="Group 71" transform="translate(-384.511 -77)">
    <g id="Group_4" data-name="Group 4" transform="translate(329.199 -424.764)">
      <path id="Path_1" data-name="Path 1" d="M59.425,557.478l16.1-11.5-10.033,9.692c-2.008,1.939,1.026,4.515,3.3,2.833q1.561-1.153,3.118-2.306a2.008,2.008,0,0,0,.344.434,2.161,2.161,0,0,0,3.19.942q2.46-1.489,4.9-3c-.094.094-.192.186-.287.28-1.985,1.977.985,4.458,3.3,2.835.415-.291.834-.579,1.25-.871a2.407,2.407,0,0,0,3.58.463q4.262-3.345,8.592-6.624L83.87,562.914c-1.671,1.589.585,4.571,2.826,3.147q7.114-4.515,14.226-9.029a1.547,1.547,0,0,0,.177,1.153q-1.847,1.386-3.69,2.774c-1.235.928-.664,2.451.47,3.131l-1.84,1.656c-2.078,1.871,1.107,4.6,3.3,2.833q11.47-9.212,23.326-18.056L107.511,563.7c-2.177,1.892,1,4.369,3.3,2.834q7.461-4.974,14.919-9.943c.3,1.3,2.357,2.218,3.986,1.133l.4-.268c-.012.012-.026.024-.037.036a2.228,2.228,0,0,0-.556.779q-1.241.957-2.486,1.912c-2.26,1.736,1.027,4.474,3.3,2.834q1.179-.853,2.36-1.7c-.009.075-.017.15-.024.225-.116,1.148,1.35,2.156,2.642,2.027a2.531,2.531,0,0,0,3.934,1.026q19.792-16.28,38.61-33.4c1.75-1.592-.542-4.46-2.827-3.147q-4.185,2.406-8.265,4.931c1.315-1.4.111-2.99-1.518-3.176a33.072,33.072,0,0,0,1.981-2.766c1.027-1.616-1.2-4.011-3.192-2.742q-6.3,4.014-12.45,8.192l9.264-8.86c2.063-1.972-.974-4.378-3.3-2.834q-3.222,2.142-6.419,4.315c-.041-1.411-2.342-2.625-4.081-1.465q-3.217,2.148-6.41,4.322a2.383,2.383,0,0,0-3.355-1.139c-8.465,4.762-14.687,5.729-11.035,2.525,1.783-1.564-.613-4.524-2.828-3.146q-5,3.107-9.948,6.275,6.146-5.475,12.561-10.725c1.877-1.529-.639-4.5-2.828-3.147q-8.911,5.5-17.556,11.31a2.586,2.586,0,0,0-2.374-1.528q1.951-1.814,3.881-3.631c1.72-1.623-.49-4.4-2.827-3.147q-1.57.844-3.1,1.732a2.628,2.628,0,0,0-2.612.333l-13.546,9.919q5.891-6,12-11.841c2-1.914-1.286-4.756-3.3-2.833-.394.377-.785.758-1.178,1.136a2.32,2.32,0,0,0-3.647-.59q-17.408,17.223-33.186,35.59C54.078,557,57.54,558.823,59.425,557.478Z" transform="translate(0 -12.018)" fill="#9e793c" opacity="0.15"/>
      <path id="Path_2" data-name="Path 2" d="M71.9,536.912H190.409v46.221H162.3v-.778h27.33V537.692H72.674v44.663h34.367v.778H71.9Z" transform="translate(-12.085 -25.613)" fill="#9e793c"/>
      <g id="Group_1" data-name="Group 1" transform="translate(92.158 545.27)">
        <path id="Path_3" data-name="Path 3" d="M204.307,665.325q0,.168-.008.346a3.164,3.164,0,0,0,.008.376.2.2,0,0,1-.054.138.234.234,0,0,1-.146.076c-.143.022-.214-.03-.214-.153a2.9,2.9,0,0,1-.016-.291v-.261l-.176.422c-.067.16-.141.336-.223.529q-.4.967-.974,2.3t-1.251,2.839q.445-.108.875-.192c.286-.056.572-.11.859-.161.081-.041.158-.078.229-.108s.148-.066.23-.107q1.4-.69,2.638-1.419t2.256-1.434a8.992,8.992,0,0,0,2.14-1.917,2.869,2.869,0,0,0,.668-1.642,1.637,1.637,0,0,0-.8-1.38,5.215,5.215,0,0,0-2.347-.721,13.257,13.257,0,0,0-3.091.1,22.037,22.037,0,0,0-3.865.92,33.143,33.143,0,0,0-4.457,1.856,40.027,40.027,0,0,0-4.878,2.906.219.219,0,0,1-.162.054.175.175,0,0,1-.13-.069.165.165,0,0,1-.031-.138.182.182,0,0,1,.093-.123,40.973,40.973,0,0,1,4.97-2.961A33.285,33.285,0,0,1,201,663.224a22.464,22.464,0,0,1,3.943-.928,13.727,13.727,0,0,1,3.168-.1.478.478,0,0,0,.108.015.431.431,0,0,1,.107.015.189.189,0,0,1,.138-.046,8.056,8.056,0,0,1,1.473.261,4.232,4.232,0,0,1,1.1.476,2.105,2.105,0,0,1,1,1.319,2.5,2.5,0,0,1-.413,1.794,6.853,6.853,0,0,1-.975,1.188,11.442,11.442,0,0,1-1.572,1.282q-.966.675-2.109,1.334t-2.431,1.289h.107a5.755,5.755,0,0,1,1.757.184,3.325,3.325,0,0,1,1.235.628,2.619,2.619,0,0,1,.782,1.068,3.963,3.963,0,0,1,.261,1.388q.736-.138,1.488-.283t1.565-.269a.2.2,0,0,1,.162.031.148.148,0,0,1,.053.116.25.25,0,0,1-.046.138.212.212,0,0,1-.154.084q-.813.122-1.58.268c-.511.1-1.012.191-1.5.284a8.3,8.3,0,0,1-.813,2.929,13.2,13.2,0,0,1-1.151,2.018,16.392,16.392,0,0,1-1.549,1.925,15.336,15.336,0,0,1-1.878,1.7,12.975,12.975,0,0,1-2.14,1.335,11.3,11.3,0,0,1-2.056.782,10.62,10.62,0,0,1-1.181.253q-.629.1-1.273.139a11.541,11.541,0,0,1-1.266.007,9.234,9.234,0,0,1-1.142-.122,4.913,4.913,0,0,1-2.133-.906,2.681,2.681,0,0,1-.66-.728,1.921,1.921,0,0,1-.276-.882,2.513,2.513,0,0,1,.176-1.112,4.381,4.381,0,0,1,.759-1.235,8.759,8.759,0,0,1,1.534-1.358,16.585,16.585,0,0,1,2.363-1.372c.082-.328.177-.683.284-1.067s.233-.8.375-1.265a.215.215,0,0,1,.108-.131.278.278,0,0,1,.153-.03.178.178,0,0,1,.123.061.142.142,0,0,1,.015.146q-.353,1.2-.6,2.071c.194-.093.393-.181.6-.269s.419-.171.644-.253q.446-.953.936-2.032t1-2.217c-.429.153-.859.291-1.289.413l-.015.015h-.016c-.255.083-.506.156-.751.224s-.5.13-.752.191a8.48,8.48,0,0,1-.889.207,3.6,3.6,0,0,1-.507.054c-.266-.02-.4-.074-.391-.161s.12-.213.345-.375a10.474,10.474,0,0,1,.982-.491c.46-.195,1.022-.408,1.687-.645s1.38-.454,2.147-.659q.629-1.427,1.189-2.723t1-2.308q.4-.935.652-1.5a6.9,6.9,0,0,1,.3-.628.755.755,0,0,1,.4-.345.35.35,0,0,1,.322.084.746.746,0,0,1,.207.36A1.65,1.65,0,0,1,204.307,665.325Zm-8.438,13.284a15.508,15.508,0,0,0-2.086,1.243,8.342,8.342,0,0,0-1.38,1.227,3.937,3.937,0,0,0-.69,1.1,2.1,2.1,0,0,0-.154.967,1.7,1.7,0,0,0,.245.767,2.368,2.368,0,0,0,.568.629,4.527,4.527,0,0,0,1.979.827,8.783,8.783,0,0,0,2.869.024,10.78,10.78,0,0,0,3.251-1.036,12.814,12.814,0,0,0,2.064-1.3,15.638,15.638,0,0,0,1.826-1.642,14.436,14.436,0,0,0,1.5-1.864,14.124,14.124,0,0,0,1.1-1.947,8.311,8.311,0,0,0,.767-2.654q-2.716.551-4.855,1.135t-3.844,1.181l-.244.093-.246.092q-.415.844-.805,1.558T197,680.259a7.353,7.353,0,0,1-.622.843.83.83,0,0,1-.46.33.3.3,0,0,1-.33-.138.994.994,0,0,1-.115-.453,3.024,3.024,0,0,1,.039-.629c.036-.23.076-.452.123-.667s.092-.41.138-.583S195.85,678.671,195.87,678.609Zm0,2.179a4.394,4.394,0,0,0,.6-.952q.414-.782.981-1.947c-.2.081-.4.166-.591.253s-.37.171-.544.254c-.123.429-.233.828-.33,1.2A3.938,3.938,0,0,0,195.87,680.788Zm3.958-8.115c.02-.05.044-.1.069-.154s.048-.1.069-.152q-1.045.289-1.94.613t-1.542.6a3.826,3.826,0,0,0-.6.276q.168-.03.376-.077t.468-.122q.736-.185,1.472-.415h.015q.4-.122.805-.269C199.294,672.874,199.562,672.775,199.828,672.673Zm3.712-1.073a.955.955,0,0,0-.13.061,1.112,1.112,0,0,1-.13.061q-.614.277-1.242.53t-1.273.5q-.492,1.1-.99,2.178t-.989,2.055l.138-.046q1.717-.612,3.9-1.2t4.924-1.143v-.122a3.476,3.476,0,0,0-.223-1.266,2.374,2.374,0,0,0-.7-.974,3.114,3.114,0,0,0-.936-.5,4.582,4.582,0,0,0-1.3-.223,1.09,1.09,0,0,1-.184.016,1.2,1.2,0,0,0-.184.015c-.112.012-.225.018-.338.023A2.541,2.541,0,0,0,203.54,671.6Zm-1.948.352c-.082.02-.169.041-.261.061l-.26.062-.061.123c.1-.041.2-.082.3-.123S201.5,671.992,201.593,671.952Z" transform="translate(-191.138 -662.144)" fill="#9e793c"/>
        <path id="Path_4" data-name="Path 4" d="M268.9,698.721a.98.98,0,0,1,.675.1.352.352,0,0,1,.123.391,1.2,1.2,0,0,1-.345.53,2.889,2.889,0,0,1-.729.514,6.016,6.016,0,0,1-.559.245,5.534,5.534,0,0,1-.576.184.928.928,0,0,0-.053.092.835.835,0,0,1-.053.093q-.108.2-.238.452c-.087.169-.169.337-.246.506s-.143.335-.2.5a4.6,4.6,0,0,0-.13.446.8.8,0,0,0,.008.56.33.33,0,0,0,.3.162,1.153,1.153,0,0,0,.475-.131,5.049,5.049,0,0,0,.553-.306c.184-.118.36-.235.529-.353l.406-.283q.536-.354,1.188-.844t1.45-1.074a.206.206,0,0,1,.154-.053.176.176,0,0,1,.123.061.2.2,0,0,1,.046.13.169.169,0,0,1-.092.138l-1.442,1.074q-.66.492-1.2.859l-.682.468a7.19,7.19,0,0,1-.913.53,2.955,2.955,0,0,1-.9.283.612.612,0,0,1-.636-.267,1.116,1.116,0,0,1-.184-.73,3.927,3.927,0,0,1,.177-1,6.013,6.013,0,0,1,.46-1.1,5.774,5.774,0,0,1,.7-1.028,4.415,4.415,0,0,1,.859-.783A2.008,2.008,0,0,1,268.9,698.721Zm-.138.583a2.552,2.552,0,0,0-.552.437,5.688,5.688,0,0,0-.414.467,3.543,3.543,0,0,0,.645-.276,3.123,3.123,0,0,0,.62-.4.8.8,0,0,0,.238-.284c.021-.066-.018-.1-.115-.1A1,1,0,0,0,268.758,699.3Z" transform="translate(-245.51 -688.791)" fill="#9e793c"/>
        <path id="Path_5" data-name="Path 5" d="M287.132,704.033a2.239,2.239,0,0,1-.475.268.781.781,0,0,1-.445.062.5.5,0,0,1-.33-.254,1.353,1.353,0,0,1-.115-.705,3.738,3.738,0,0,1,.162-.944,4.439,4.439,0,0,1,.406-.935,4.72,4.72,0,0,1,.614-.837,3.788,3.788,0,0,1,.767-.644,2.949,2.949,0,0,1,.56-.269,1.7,1.7,0,0,1,.56-.1,1.094,1.094,0,0,1,.521.13,1.18,1.18,0,0,1,.43.422,3.175,3.175,0,0,1,.46-.528,1.188,1.188,0,0,1,.43-.276.226.226,0,0,1,.284.115,1.079,1.079,0,0,1,.023.644,3.622,3.622,0,0,1-.146.546c-.077.23-.158.477-.245.743s-.171.537-.254.813a3.935,3.935,0,0,0-.153.752.7.7,0,0,0,.122.6c.113.1.348.1.706-.015a4.019,4.019,0,0,0,1.013-.522q.536-.369,1.035-.783t.9-.782c.265-.246.465-.419.6-.522a.216.216,0,0,1,.161-.053.212.212,0,0,1,.138.061.174.174,0,0,1,.054.13.172.172,0,0,1-.077.138q-.26.2-.729.615t-1.035.867q-.568.452-1.181.859a5.068,5.068,0,0,1-1.166.591.84.84,0,0,1-.812-.032.948.948,0,0,1-.323-.621,3.345,3.345,0,0,1,.008-.928q.069-.523.169-.967c.067-.3.128-.54.184-.728s.074-.264.053-.224q-.26.414-.575.876t-.682.9a10.919,10.919,0,0,1-.776.843A6.062,6.062,0,0,1,287.132,704.033Zm2.378-3.405q-.2-.476-.537-.476a1.218,1.218,0,0,0-.691.245,2.777,2.777,0,0,0-.567.537,5.86,5.86,0,0,0-.506.729,6,6,0,0,0-.391.79,5.124,5.124,0,0,0-.238.722c-.051.245-.031.413.061.505s.261.047.506-.138a5.7,5.7,0,0,0,.706-.629,8.68,8.68,0,0,0,.629-.737q.291-.384.545-.782T289.51,700.628Z" transform="translate(-260.095 -689.301)" fill="#9e793c"/>
        <path id="Path_6" data-name="Path 6" d="M322.41,702.4a4.043,4.043,0,0,1,.015-1.533q-.352.582-.751,1.174a12.337,12.337,0,0,1-.859,1.127,6.851,6.851,0,0,1-.514.521,2.774,2.774,0,0,1-.552.407.683.683,0,0,1-.491.093c-.148-.036-.253-.176-.314-.422a2.993,2.993,0,0,1-.084-1,6.676,6.676,0,0,1,.176-1.12q.139-.569.323-1.113t.368-.974a.52.52,0,0,1,.253-.276.912.912,0,0,1,.383-.123.446.446,0,0,1,.307.069c.077.056.084.156.024.3a8.776,8.776,0,0,0-.331.845q-.161.475-.291.989t-.231,1a7.351,7.351,0,0,0-.13.875c-.021.205.023.3.13.3s.324-.2.652-.59q.322-.368.644-.806t.621-.906c.2-.312.386-.625.56-.943s.328-.613.46-.889a.456.456,0,0,1,.276-.26.523.523,0,0,1,.322.008.528.528,0,0,1,.245.168.242.242,0,0,1,.062.223,3.5,3.5,0,0,1-.115.452q-.1.33-.192.737t-.154.82a2.394,2.394,0,0,0-.015.706q.061.353.291.413a.845.845,0,0,0,.544-.068,4.244,4.244,0,0,0,.691-.376,8.168,8.168,0,0,0,.721-.53c.23-.188.442-.366.637-.528s.338-.282.429-.354a.261.261,0,0,1,.169-.053.176.176,0,0,1,.122.061.189.189,0,0,1,.047.13.169.169,0,0,1-.093.138l-.605.491q-.377.307-.814.63a9.741,9.741,0,0,1-.9.59,2.908,2.908,0,0,1-.866.353,1.068,1.068,0,0,1-.721-.076A1,1,0,0,1,322.41,702.4Z" transform="translate(-284.205 -689.093)" fill="#9e793c"/>
        <path id="Path_7" data-name="Path 7" d="M349.485,678.8q-.215.52-.507,1.143t-.644,1.311c.246-.031.522-.058.829-.085s.613-.046.92-.061.606-.018.9-.007a3.893,3.893,0,0,1,.759.092,1.788,1.788,0,0,1,.338.13q.169.083.046.3a.584.584,0,0,1-.253.176,3.511,3.511,0,0,1-.43.153c-.158.047-.312.092-.46.138s-.269.085-.361.116a.163.163,0,0,1-.16.007.189.189,0,0,1-.093-.1.167.167,0,0,1,.008-.131.241.241,0,0,1,.123-.114q.245-.093.506-.169l.522-.154a4.486,4.486,0,0,0-.76-.068c-.291-.005-.591,0-.9.015s-.614.038-.921.068-.583.057-.828.078a.621.621,0,0,1-.077.137.6.6,0,0,0-.076.139q-.446.8-.952,1.6t-1.028,1.535q-.122.307-.253.712a5.848,5.848,0,0,0-.2.813,3.549,3.549,0,0,0-.053.752.884.884,0,0,0,.192.552.718.718,0,0,0,.56.215,2.673,2.673,0,0,0,1.043-.284,7.693,7.693,0,0,0,1.05-.553q.545-.337,1.074-.728t1.028-.805q.5-.415.912-.767a.221.221,0,0,1,.162-.053.2.2,0,0,1,.13.053.192.192,0,0,1,.054.123.152.152,0,0,1-.069.137q-.429.369-.944.791t-1.058.82c-.363.267-.731.514-1.1.745a8.837,8.837,0,0,1-1.082.575,4.219,4.219,0,0,1-1.5.408,1.235,1.235,0,0,1-.867-.261,1.146,1.146,0,0,1-.353-.76,4.151,4.151,0,0,1,.046-1.1,8.661,8.661,0,0,1,.322-1.289q.223-.675.476-1.3c.169-.418.335-.805.5-1.158s.3-.637.4-.852q-.629.078-1.289.16t-1.381.193a.182.182,0,0,1-.161-.039.171.171,0,0,1-.054-.123.21.21,0,0,1,.047-.13.218.218,0,0,1,.153-.078q.782-.107,1.5-.2t1.373-.169q.415-.828.867-1.671a12.2,12.2,0,0,1,1.021-1.6,3.022,3.022,0,0,1,.621-.644c.19-.132.337-.179.445-.138s.158.177.153.407A3.4,3.4,0,0,1,349.485,678.8Zm-2.762,4.449q.23-.354.444-.729t.431-.729a.479.479,0,0,0,.023-.052.482.482,0,0,1,.023-.055.288.288,0,0,1-.092.015.285.285,0,0,0-.092.016c-.133.266-.26.525-.384.774S346.836,683,346.724,683.253Zm1.135-1.949q.369-.674.7-1.365t.591-1.38q-.4.675-.768,1.373t-.721,1.388a.736.736,0,0,0,.1-.007A.635.635,0,0,1,347.859,681.3Z" transform="translate(-302.215 -673.245)" fill="#9e793c"/>
        <path id="Path_8" data-name="Path 8" d="M365.768,700.406a1.24,1.24,0,0,0-.192.276c-.1.163-.2.347-.321.552s-.233.414-.345.629-.194.384-.246.506a.566.566,0,0,0-.046.161.238.238,0,0,0,.015.154c.02.036.07.044.146.022a1.11,1.11,0,0,0,.345-.215,7.561,7.561,0,0,0,.76-.7q.36-.384.713-.775t.714-.752a5.473,5.473,0,0,1,.758-.636,1.725,1.725,0,0,1,.844-.391.487.487,0,0,1,.453.214,1.21,1.21,0,0,1,.161.614,4.957,4.957,0,0,1-.039.813,7.171,7.171,0,0,1-.145.8q-.093.384-.169.6.613-.337,1.281-.683t1.4-.7a.214.214,0,0,1,.162-.023.2.2,0,0,1,.107.084.147.147,0,0,1,.016.131.214.214,0,0,1-.115.115q-.844.415-1.6.8t-1.442.775q-.214.567-.468,1.135t-.544,1.12a16.632,16.632,0,0,1-1.741,2.723,11.915,11.915,0,0,1-1.741,1.794,5.662,5.662,0,0,1-1.588.952,2.742,2.742,0,0,1-1.258.2.99.99,0,0,1-.751-.444,1.245,1.245,0,0,1-.093-.982,4.251,4.251,0,0,1,.744-1.427,10.411,10.411,0,0,1,1.764-1.787,22.53,22.53,0,0,1,2.255-1.665q1.2-.775,2.424-1.465c.031-.092.089-.251.176-.476s.174-.473.261-.744.166-.545.238-.821a3.68,3.68,0,0,0,.123-.7.461.461,0,0,0-.092-.375c-.072-.061-.21-.016-.415.139a7.709,7.709,0,0,0-.759.667q-.361.36-.721.744t-.728.752a7.1,7.1,0,0,1-.783.675,1.779,1.779,0,0,1-.744.368.44.44,0,0,1-.529-.2.91.91,0,0,1-.076-.575,3.545,3.545,0,0,1,.184-.745,5.326,5.326,0,0,1,.33-.737,5.947,5.947,0,0,1,.345-.568.859.859,0,0,1,.437-.322,1,1,0,0,1,.445-.046.294.294,0,0,1,.245.153C365.965,700.212,365.911,700.3,365.768,700.406Zm1.3,4.525q.2-.353.368-.721t.322-.721q-1.09.645-2.155,1.334a21.807,21.807,0,0,0-2.033,1.489,9,9,0,0,0-1.933,2.025,2.514,2.514,0,0,0-.506,1.388.579.579,0,0,0,.6.552,2.359,2.359,0,0,0,1.4-.484,9.459,9.459,0,0,0,1.887-1.718A15.515,15.515,0,0,0,367.072,704.932Z" transform="translate(-314.74 -689.172)" fill="#9e793c"/>
      </g>
      <g id="Group_3" data-name="Group 3" transform="translate(70.745 501.764)">
        <path id="Path_9" data-name="Path 9" d="M262.194,535.681a7.2,7.2,0,0,0-.507,1.449h1.16a5.241,5.241,0,0,1,.616-1.449Z" transform="translate(-221.136 -526.48)" fill="#9e793c"/>
        <g id="Group_2" data-name="Group 2" transform="translate(39.344)">
          <path id="Path_10" data-name="Path 10" d="M319.921,501.8q.592-.032,1.2-.031a12.2,12.2,0,0,1,1.23.062,19.454,19.454,0,0,1,3.378.234,16.279,16.279,0,0,1,3.127.793q.809.28,1.556.623a13.007,13.007,0,0,1,1.493.81q.561.341,1.121.762a5.237,5.237,0,0,1,1,.979,2.656,2.656,0,0,1,.42.857,1.4,1.4,0,0,1-.108,1.011,2.3,2.3,0,0,1-.935,1.058,9.77,9.77,0,0,1-1.307.685,11.764,11.764,0,0,1-3.345.871,17.948,17.948,0,0,1-3.5.031,20.666,20.666,0,0,1-2.989-.155q-1.494-.188-2.956-.435-3.208-.561-6.318-1.153t-6.319-1.214q-.372-.093-.747-.155c-.249-.041-.518-.093-.808-.155l-.218.218a1.429,1.429,0,0,1-.281.218.078.078,0,0,1-.124,0,.078.078,0,0,1,0-.125,2.164,2.164,0,0,1,.217-.187,1.855,1.855,0,0,0,.218-.186q-2.862-.561-5.694-1.136t-5.76-1.042q-1.958-.374-3.921-.623l-3.921-.5q-1.962-.249-3.923-.373t-3.92-.062a33.473,33.473,0,0,0-3.673.2,21.923,21.923,0,0,0-3.672.731,14.282,14.282,0,0,0-3.143,1.307,12.406,12.406,0,0,0-2.708,2.054,8.348,8.348,0,0,0-1.977,3.191,25.976,25.976,0,0,0-.948,3.657.4.4,0,0,1-.125.233.215.215,0,0,1-.343-.047.327.327,0,0,1-.032-.248,24.13,24.13,0,0,1,.749-2.864,12.836,12.836,0,0,1,1.663-2.987,11.592,11.592,0,0,1,2.444-2.428,13.044,13.044,0,0,1,3.035-1.6,22.29,22.29,0,0,1,3.314-.949,29.531,29.531,0,0,1,3.719-.451q1.883-.109,3.783-.032t3.8.281q1.9.2,3.765.451,2.336.279,4.637.637t4.639.794q2.116.374,4.2.81t4.2.871a17.864,17.864,0,0,1,2.147-1.509,24.714,24.714,0,0,1,2.335-1.229,26.927,26.927,0,0,1,5.042-1.743A32.619,32.619,0,0,1,319.921,501.8Zm11.019,6.535a1.528,1.528,0,0,0,.5-1.12,2.132,2.132,0,0,0-.374-1.074,4.086,4.086,0,0,0-.871-.934c-.354-.28-.685-.524-1-.731a14.814,14.814,0,0,0-3.035-1.4,18.037,18.037,0,0,0-3.563-.793,21.656,21.656,0,0,0-3.953-.109,24.051,24.051,0,0,0-4.139.622,30.717,30.717,0,0,0-4.809,1.7,21.7,21.7,0,0,0-4.342,2.6q1.121.251,2.272.468t2.272.466q1.586.343,3.2.592t3.269.592q1.991.342,3.891.606a32.845,32.845,0,0,0,3.579.312,20.119,20.119,0,0,0,3.128-.14,8.209,8.209,0,0,0,2.536-.716c.25-.124.5-.254.763-.389A2.132,2.132,0,0,0,330.94,508.33Zm1.835.063a1.52,1.52,0,0,0,.5-1.12,2.123,2.123,0,0,0-.374-1.074,4.1,4.1,0,0,0-.871-.934q-.529-.42-1-.731a15.984,15.984,0,0,0-1.634-.856,13.413,13.413,0,0,0-1.821-.67,15.245,15.245,0,0,1,2.491,1.214q.559.343,1.12.763a5.274,5.274,0,0,1,1,.98,2.635,2.635,0,0,1,.42.856,1.409,1.409,0,0,1-.109,1.013,2.29,2.29,0,0,1-.935,1.058,10.037,10.037,0,0,1-1.307.685,5.337,5.337,0,0,1-.576.217c-.2.063-.389.125-.575.188a8.121,8.121,0,0,0,2.241-.654c.248-.125.5-.254.761-.39A2.093,2.093,0,0,0,332.774,508.393Z" transform="translate(-260.089 -501.764)" fill="#9e793c"/>
          <path id="Path_11" data-name="Path 11" d="M260.01,547.95a1.385,1.385,0,1,1-1.386-1.385A1.385,1.385,0,0,1,260.01,547.95Z" transform="translate(-257.24 -534.412)" fill="#9e793c"/>
        </g>
        <path id="Path_12" data-name="Path 12" d="M176.277,570.572h4.491l.866,2.292h-5.357V588.1h4.559V590.4h-6.783V572.865h-1.18l-.73-2.292h1.91v-6.257h6.783v2.225h-4.559Z" transform="translate(-155.882 -547.347)" fill="#9e793c"/>
        <path id="Path_13" data-name="Path 13" d="M217.509,572.495l4.865,9.95a8.051,8.051,0,0,1,.943,3.507,3.907,3.907,0,0,1-1.758,3.421,7.725,7.725,0,0,1-4.466,1.205h-3.2v-2.292h3.269q3.651,0,3.651-2.335a8.005,8.005,0,0,0-1.079-3.507l-4.763-9.95a8.062,8.062,0,0,1-.662-2.92,5.982,5.982,0,0,1,1.163-3.566,3.839,3.839,0,0,1,3.252-1.444h3.065v2.3l-2.267-.076a3.064,3.064,0,0,0-2.042.7,2.712,2.712,0,0,0-.947,1.911,5.118,5.118,0,0,0,.247,1.312,11.946,11.946,0,0,0,.471,1.235A4.333,4.333,0,0,0,217.509,572.495Z" transform="translate(-186.307 -547.529)" fill="#9e793c"/>
        <path id="Path_14" data-name="Path 14" d="M260.1,590.4H257.88V564.315H260.1Z" transform="translate(-218.362 -547.347)" fill="#9e793c"/>
        <path id="Path_15" data-name="Path 15" d="M383.136,589.491a12.977,12.977,0,0,1-6.669-1.8,13.328,13.328,0,0,1-4.861-4.869,12.994,12.994,0,0,1-1.791-6.656,13.147,13.147,0,0,1,1.791-6.707,13.285,13.285,0,0,1,4.861-4.886,12.974,12.974,0,0,1,6.669-1.8,13.118,13.118,0,0,1,6.707,1.8,13.266,13.266,0,0,1,4.886,4.886,13.119,13.119,0,0,1,1.8,6.707,12.946,12.946,0,0,1-1.8,6.656,13.351,13.351,0,0,1-4.886,4.869A13.1,13.1,0,0,1,383.136,589.491Zm.072-2.326a10.724,10.724,0,0,0,5.5-1.477,10.973,10.973,0,0,0,4.009-4.007,11.009,11.009,0,0,0,.628-9.75,11.1,11.1,0,0,0-5.894-5.9,10.792,10.792,0,0,0-4.246-.844,10.9,10.9,0,0,0-5.559,1.477,11.029,11.029,0,0,0-4.047,4.02,10.847,10.847,0,0,0,0,10.99,11.032,11.032,0,0,0,4.047,4.015A10.9,10.9,0,0,0,383.208,587.165Z" transform="translate(-299.932 -546.23)" fill="#9e793c"/>
        <path id="Path_16" data-name="Path 16" d="M125.371,564.107v2.314a11.055,11.055,0,0,0-5.893,1.511,9.784,9.784,0,0,0-3.709,3.974,11.506,11.506,0,0,0,0,10.577,9.826,9.826,0,0,0,3.7,3.973,11.022,11.022,0,0,0,5.9,1.516v2.279a14.122,14.122,0,0,1-5.664-1.076,11.828,11.828,0,0,1-4.153-2.934,12.558,12.558,0,0,1-2.511-4.2,14.167,14.167,0,0,1-.84-4.828,14.406,14.406,0,0,1,.84-4.879,12.606,12.606,0,0,1,2.494-4.208,11.737,11.737,0,0,1,4.157-2.938A14.159,14.159,0,0,1,125.371,564.107Z" transform="translate(-112.202 -547.195)" fill="#9e793c"/>
        <path id="Path_17" data-name="Path 17" d="M322.368,564.107v2.314a11.053,11.053,0,0,0-5.892,1.511,9.78,9.78,0,0,0-3.709,3.974,11.5,11.5,0,0,0,0,10.577,9.823,9.823,0,0,0,3.7,3.973,11.021,11.021,0,0,0,5.9,1.516v2.279a14.123,14.123,0,0,1-5.664-1.076,11.827,11.827,0,0,1-4.153-2.934,12.558,12.558,0,0,1-2.511-4.2,14.166,14.166,0,0,1-.84-4.828,14.405,14.405,0,0,1,.84-4.879,12.606,12.606,0,0,1,2.494-4.208,11.738,11.738,0,0,1,4.157-2.938A14.16,14.16,0,0,1,322.368,564.107Z" transform="translate(-255.76 -547.195)" fill="#9e793c"/>
      </g>
    </g>
  </g>
</svg>
