<svg xmlns="http://www.w3.org/2000/svg" width="21.271" height="14.956" viewBox="0 0 21.271 14.956">
  <g id="Group_77" data-name="Group 77" transform="translate(-901.511 -3485.5)">
    <g id="Group_50" data-name="Group 50" transform="translate(901.511 3409.5)">
      <g id="Group_6" data-name="Group 6" transform="translate(14.632 77.069)">
        <g id="Group_5" data-name="Group 5" transform="translate(0 0)">
          <path id="Path_18" data-name="Path 18" d="M358.662,101.721l-6.451,6.409,6.451,6.409a1.848,1.848,0,0,0,.187-.8V102.522A1.847,1.847,0,0,0,358.662,101.721Z" transform="translate(-352.211 -101.721)" fill="#9e793c"/>
        </g>
      </g>
      <g id="Group_8" data-name="Group 8" transform="translate(1.069 76)">
        <g id="Group_7" data-name="Group 7" transform="translate(0 0)">
          <path id="Path_19" data-name="Path 19" d="M44.054,76H26.522a1.848,1.848,0,0,0-.8.187l8.245,8.2a1.871,1.871,0,0,0,2.644,0l8.245-8.2A1.848,1.848,0,0,0,44.054,76Z" transform="translate(-25.721 -76)" fill="#9e793c"/>
        </g>
      </g>
      <g id="Group_10" data-name="Group 10" transform="translate(0 77.069)">
        <g id="Group_9" data-name="Group 9" transform="translate(0 0)">
          <path id="Path_20" data-name="Path 20" d="M.187,101.721a1.848,1.848,0,0,0-.187.8v11.217a1.848,1.848,0,0,0,.187.8l6.451-6.409Z" transform="translate(0 -101.721)" fill="#9e793c"/>
        </g>
      </g>
      <g id="Group_12" data-name="Group 12" transform="translate(1.069 84.359)">
        <g id="Group_11" data-name="Group 11" transform="translate(0 0)">
          <path id="Path_21" data-name="Path 21" d="M38.4,277.211l-.913.913a3.119,3.119,0,0,1-4.406,0l-.913-.913-6.451,6.409a1.847,1.847,0,0,0,.8.187H44.054a1.847,1.847,0,0,0,.8-.187Z" transform="translate(-25.721 -277.211)" fill="#9e793c"/>
        </g>
      </g>
    </g>
  </g>
</svg>
