<svg xmlns="http://www.w3.org/2000/svg" width="51" height="51" viewBox="0 0 51 51">
  <g id="Group_72" data-name="Group 72" transform="translate(-1704 -386)">
    <g id="Group_20" data-name="Group 20" transform="translate(1296 -11)">
      <circle id="Ellipse_1" data-name="Ellipse 1" cx="25.5" cy="25.5" r="25.5" transform="translate(408 397)" fill="#9e793c" opacity="0.55"/>
      <g id="Group_18" data-name="Group 18" transform="translate(427.358 409.069)">
        <g id="Group_17" data-name="Group 17" transform="translate(0)">
          <path id="Path_26" data-name="Path 26" d="M116.831,12.383,104.877.429a1.473,1.473,0,0,0-2.078,0l-.88.88a1.471,1.471,0,0,0,0,2.078l10.038,10.038L101.907,23.475a1.473,1.473,0,0,0,0,2.078l.88.88a1.473,1.473,0,0,0,2.078,0l11.965-11.965a1.483,1.483,0,0,0,0-2.085Z" transform="translate(-101.478)" fill="#fff"/>
        </g>
      </g>
    </g>
  </g>
</svg>
