<svg xmlns="http://www.w3.org/2000/svg" width="14.956" height="14.956" viewBox="0 0 14.956 14.956">
  <g id="Group_76" data-name="Group 76" transform="translate(-1315 -3411.022)">
    <g id="Group_49" data-name="Group 49" transform="translate(1315 3411.022)">
      <g id="Group_14" data-name="Group 14">
        <path id="Path_22" data-name="Path 22" d="M13.756,9.817a8.491,8.491,0,0,1-2.667-.425,1.219,1.219,0,0,0-1.185.25L8.222,10.912A9.293,9.293,0,0,1,4.044,6.734L5.276,5.1a1.209,1.209,0,0,0,.3-1.225A8.5,8.5,0,0,1,5.147,1.2,1.2,1.2,0,0,0,3.947,0H1.2A1.2,1.2,0,0,0,0,1.2,13.771,13.771,0,0,0,13.756,14.956a1.2,1.2,0,0,0,1.2-1.2V11.017A1.2,1.2,0,0,0,13.756,9.817Z" fill="#9e793c"/>
      </g>
    </g>
  </g>
</svg>
