<svg id="Group_54" data-name="Group 54" xmlns="http://www.w3.org/2000/svg" width="30.487" height="30.486" viewBox="0 0 30.487 30.486">
  <g id="Group_14" data-name="Group 14">
    <path id="Path_22" data-name="Path 22" d="M28.04,20.011a17.309,17.309,0,0,1-5.436-.866,2.485,2.485,0,0,0-2.417.509L16.76,22.242a18.944,18.944,0,0,1-8.517-8.516l2.512-3.339a2.464,2.464,0,0,0,.606-2.5,17.336,17.336,0,0,1-.869-5.445A2.449,2.449,0,0,0,8.045,0h-5.6A2.449,2.449,0,0,0,0,2.446a28.072,28.072,0,0,0,28.04,28.04,2.449,2.449,0,0,0,2.446-2.446V22.457A2.449,2.449,0,0,0,28.04,20.011Z" fill="#9e793c"/>
  </g>
</svg>
