<svg xmlns="http://www.w3.org/2000/svg" width="38.153" height="38.336" viewBox="0 0 38.153 38.336">
  <path id="Path_30" data-name="Path 30" d="M56.154,26.55a19,19,0,0,0-29.9,22.921l-2.7,9.844,10.07-2.642a18.977,18.977,0,0,0,9.078,2.312h.008A19,19,0,0,0,56.154,26.55ZM42.716,55.778H42.71a15.77,15.77,0,0,1-8.036-2.2l-.576-.342L28.121,54.8l1.6-5.826-.376-.6a15.789,15.789,0,1,1,13.376,7.4Zm8.661-11.825c-.475-.238-2.808-1.386-3.244-1.544s-.752-.237-1.068.238-1.226,1.544-1.5,1.861-.554.357-1.028.119a12.964,12.964,0,0,1-3.817-2.356,14.32,14.32,0,0,1-2.641-3.288c-.277-.475,0-.708.208-.969a13.432,13.432,0,0,0,1.187-1.624.873.873,0,0,0-.04-.832c-.118-.237-1.068-2.574-1.463-3.525-.386-.925-.777-.8-1.068-.815s-.593-.017-.91-.017a1.744,1.744,0,0,0-1.266.594,5.324,5.324,0,0,0-1.661,3.96A9.234,9.234,0,0,0,35,40.666c.237.317,3.347,5.111,8.109,7.167a27.16,27.16,0,0,0,2.706,1,6.507,6.507,0,0,0,2.99.188c.912-.136,2.808-1.148,3.2-2.257a3.966,3.966,0,0,0,.277-2.257C52.168,44.309,51.851,44.19,51.377,43.952Z" transform="translate(-23.56 -20.979)" fill="#9e793c" fill-rule="evenodd"/>
</svg>
