<svg xmlns="http://www.w3.org/2000/svg" width="417" height="417" viewBox="0 0 417 417">
  <g id="Group_73" data-name="Group 73" transform="translate(-419.899 -689.899)">
    <g id="Ellipse_2" data-name="Ellipse 2" transform="translate(439.899 709.899)" fill="#fff" stroke="rgba(255,255,255,0.19)" stroke-width="20">
      <circle cx="188.5" cy="188.5" r="188.5" stroke="none"/>
      <circle cx="188.5" cy="188.5" r="198.5" fill="none"/>
    </g>
    <g id="Group_21" data-name="Group 21" transform="translate(473.773 816.768)">
      <path id="Path_1" data-name="Path 1" d="M65.3,613.508q19.55-13.972,39.1-27.94-12.178,11.769-24.365,23.538c-4.876,4.71,2.492,10.965,8.012,6.881q3.791-2.8,7.573-5.6a4.878,4.878,0,0,0,.835,1.053,5.247,5.247,0,0,0,7.746,2.289q5.974-3.616,11.9-7.3c-.229.229-.466.452-.7.68-4.821,4.8,2.392,10.825,8.014,6.885,1.009-.707,2.026-1.407,3.035-2.114a5.847,5.847,0,0,0,8.693,1.123q10.35-8.123,20.866-16.088-15.674,14.9-31.347,29.793c-4.059,3.858,1.42,11.1,6.864,7.643q17.277-10.965,34.549-21.928a3.756,3.756,0,0,0,.431,2.8q-4.485,3.366-8.961,6.737c-3,2.254-1.613,5.952,1.142,7.6l-4.469,4.022c-5.046,4.543,2.687,11.163,8.012,6.88q27.856-22.372,56.648-43.851-18.4,15.995-36.8,31.992c-5.287,4.6,2.418,10.61,8.01,6.884q18.119-12.079,36.232-24.147c.73,3.158,5.725,5.387,9.68,2.751.325-.217.652-.435.976-.65-.03.028-.064.058-.091.087a5.411,5.411,0,0,0-1.349,1.891q-3.015,2.324-6.037,4.644c-5.488,4.215,2.495,10.865,8.011,6.883q2.864-2.071,5.732-4.137c-.023.181-.04.364-.058.547-.282,2.788,3.277,5.235,6.417,4.922a6.146,6.146,0,0,0,9.555,2.493q48.066-39.536,93.767-81.12c4.251-3.866-1.316-10.83-6.865-7.643q-10.164,5.842-20.073,11.976c3.194-3.412.27-7.26-3.687-7.712a80.319,80.319,0,0,0,4.81-6.719c2.494-3.925-2.916-9.742-7.751-6.659q-15.3,9.747-30.237,19.9,11.253-10.763,22.5-21.517c5.01-4.79-2.364-10.632-8.016-6.882q-7.825,5.2-15.588,10.48c-.1-3.427-5.688-6.375-9.912-3.557q-7.813,5.216-15.566,10.5a5.786,5.786,0,0,0-8.149-2.766c-20.558,11.564-35.669,13.913-26.8,6.133,4.33-3.8-1.489-10.987-6.869-7.641q-12.138,7.546-24.159,15.239,14.926-13.3,30.5-26.045c4.558-3.714-1.551-10.923-6.867-7.642q-21.641,13.364-42.636,27.466a6.28,6.28,0,0,0-5.766-3.711q4.737-4.4,9.425-8.817c4.178-3.942-1.19-10.695-6.865-7.643q-3.812,2.051-7.535,4.207a6.382,6.382,0,0,0-6.343.808l-32.9,24.089q14.306-14.572,29.14-28.756c4.865-4.647-3.124-11.551-8.014-6.881-.957.915-1.905,1.841-2.86,2.759-1.575-2.788-5.846-4.414-8.857-1.433Q94.717,563.005,56.4,607.609C52.315,612.359,60.723,616.776,65.3,613.508Z" transform="translate(-55.312 -507.391)" fill="#9e793c" opacity="0.15"/>
      <path id="Path_2" data-name="Path 2" d="M71.9,536.912H359.712v112.25H291.448v-1.89h66.373V538.806H73.785V647.272h83.462v1.89H71.9Z" transform="translate(-60.971 -513.757)" fill="#9e793c"/>
      <g id="Group_1" data-name="Group 1" transform="translate(89.481 105.658)">
        <path id="Path_3" data-name="Path 3" d="M223.121,669.869q0,.409-.019.839a7.69,7.69,0,0,0,.019.912.491.491,0,0,1-.131.334.57.57,0,0,1-.354.185c-.346.053-.52-.074-.52-.371a7.043,7.043,0,0,1-.038-.706v-.634l-.428,1.024c-.163.388-.341.815-.541,1.286q-.968,2.348-2.366,5.588t-3.037,6.894q1.081-.262,2.125-.466c.7-.135,1.389-.267,2.087-.39.2-.1.384-.188.557-.262s.36-.161.559-.261q3.389-1.677,6.407-3.445t5.478-3.484a21.833,21.833,0,0,0,5.2-4.656,6.967,6.967,0,0,0,1.621-3.988,3.975,3.975,0,0,0-1.937-3.352,12.665,12.665,0,0,0-5.7-1.751,32.189,32.189,0,0,0-7.506.243,53.539,53.539,0,0,0-9.387,2.235,80.528,80.528,0,0,0-10.824,4.508,97.2,97.2,0,0,0-11.846,7.059.532.532,0,0,1-.393.131.425.425,0,0,1-.316-.168.4.4,0,0,1-.074-.334.443.443,0,0,1,.225-.3,99.5,99.5,0,0,1,12.07-7.19,80.831,80.831,0,0,1,11.045-4.581,54.553,54.553,0,0,1,9.575-2.253,33.34,33.34,0,0,1,7.693-.243,1.154,1.154,0,0,0,.262.037,1.047,1.047,0,0,1,.26.036.459.459,0,0,1,.335-.111,19.568,19.568,0,0,1,3.578.633,10.281,10.281,0,0,1,2.682,1.155,5.113,5.113,0,0,1,2.421,3.2,6.062,6.062,0,0,1-1,4.358,16.644,16.644,0,0,1-2.369,2.886,27.777,27.777,0,0,1-3.818,3.113q-2.347,1.639-5.121,3.24t-5.9,3.13h.259a13.976,13.976,0,0,1,4.268.447,8.075,8.075,0,0,1,3,1.525,6.36,6.36,0,0,1,1.9,2.593,9.625,9.625,0,0,1,.634,3.37q1.789-.335,3.613-.688c1.217-.237,2.484-.452,3.8-.653a.489.489,0,0,1,.393.074.359.359,0,0,1,.13.281.607.607,0,0,1-.111.336.515.515,0,0,1-.374.2q-1.973.3-3.837.651c-1.242.237-2.459.464-3.649.69a20.166,20.166,0,0,1-1.975,7.114,32.061,32.061,0,0,1-2.8,4.9,39.808,39.808,0,0,1-3.762,4.674,37.256,37.256,0,0,1-4.561,4.135,31.521,31.521,0,0,1-5.2,3.243,27.46,27.46,0,0,1-4.992,1.9,25.792,25.792,0,0,1-2.869.613q-1.529.241-3.092.337a28.023,28.023,0,0,1-3.074.017,22.423,22.423,0,0,1-2.774-.3,11.931,11.931,0,0,1-5.179-2.2,6.512,6.512,0,0,1-1.6-1.768,4.665,4.665,0,0,1-.669-2.143,6.1,6.1,0,0,1,.428-2.7,10.635,10.635,0,0,1,1.843-3,21.267,21.267,0,0,1,3.725-3.3,40.277,40.277,0,0,1,5.738-3.332c.2-.8.43-1.658.69-2.59s.565-1.955.912-3.073a.522.522,0,0,1,.262-.318.676.676,0,0,1,.372-.074.434.434,0,0,1,.3.148.345.345,0,0,1,.038.354q-.857,2.905-1.452,5.03c.47-.225.955-.441,1.452-.653s1.018-.416,1.564-.613q1.082-2.313,2.273-4.936t2.421-5.384c-1.042.371-2.086.708-3.129,1l-.036.037h-.038c-.62.2-1.229.378-1.825.543s-1.207.315-1.826.464a20.591,20.591,0,0,1-2.16.5,8.744,8.744,0,0,1-1.231.131c-.647-.049-.962-.179-.949-.392s.293-.516.838-.911a25.415,25.415,0,0,1,2.385-1.193c1.117-.473,2.482-.992,4.1-1.566s3.351-1.1,5.214-1.6q1.529-3.464,2.888-6.613t2.44-5.6q.968-2.272,1.583-3.652a16.763,16.763,0,0,1,.726-1.526,1.835,1.835,0,0,1,.969-.838.849.849,0,0,1,.783.2,1.81,1.81,0,0,1,.5.874A4.007,4.007,0,0,1,223.121,669.869ZM202.63,702.13a37.661,37.661,0,0,0-5.067,3.019,20.247,20.247,0,0,0-3.351,2.98,9.558,9.558,0,0,0-1.677,2.683,5.089,5.089,0,0,0-.374,2.347,4.14,4.14,0,0,0,.6,1.863,5.752,5.752,0,0,0,1.379,1.527,11,11,0,0,0,4.807,2.009,21.323,21.323,0,0,0,6.967.058,26.177,26.177,0,0,0,7.9-2.515,31.111,31.111,0,0,0,5.011-3.147,37.977,37.977,0,0,0,4.434-3.987,35.069,35.069,0,0,0,3.633-4.527,34.319,34.319,0,0,0,2.683-4.729,20.187,20.187,0,0,0,1.863-6.446q-6.6,1.339-11.792,2.756t-9.334,2.867l-.594.226c-.2.074-.4.148-.6.223q-1.007,2.049-1.955,3.783t-1.789,3.016a17.86,17.86,0,0,1-1.51,2.047,2.015,2.015,0,0,1-1.117.8.735.735,0,0,1-.8-.335,2.415,2.415,0,0,1-.279-1.1,7.344,7.344,0,0,1,.094-1.527c.087-.559.185-1.1.3-1.62s.223-1,.336-1.415S202.581,702.281,202.63,702.13Zm0,5.291a10.672,10.672,0,0,0,1.454-2.312q1.006-1.9,2.383-4.729c-.5.2-.974.4-1.434.613s-.9.416-1.322.617c-.3,1.041-.566,2.011-.8,2.9A9.564,9.564,0,0,0,202.63,707.422Zm9.613-19.708c.049-.122.106-.247.167-.373s.117-.247.169-.37q-2.537.7-4.712,1.488t-3.745,1.452a9.3,9.3,0,0,0-1.454.672q.409-.073.914-.187t1.137-.3q1.788-.45,3.575-1.007h.037q.969-.3,1.955-.653C210.946,688.2,211.6,687.961,212.243,687.714Zm9.015-2.607a2.333,2.333,0,0,0-.317.148,2.688,2.688,0,0,1-.317.147q-1.49.672-3.016,1.287t-3.092,1.21q-1.195,2.682-2.4,5.29t-2.4,4.991l.335-.111q4.169-1.488,9.462-2.924t11.959-2.777v-.3a8.442,8.442,0,0,0-.541-3.075,5.765,5.765,0,0,0-1.694-2.366,7.566,7.566,0,0,0-2.272-1.209,11.125,11.125,0,0,0-3.167-.542,2.659,2.659,0,0,1-.448.038,2.922,2.922,0,0,0-.446.037c-.273.028-.547.045-.82.056A6.158,6.158,0,0,0,221.258,685.107Zm-4.73.855c-.2.049-.411.1-.635.148s-.434.1-.632.151l-.149.3c.247-.1.49-.2.727-.3S216.3,686.061,216.528,685.962Z" transform="translate(-191.138 -662.144)" fill="#9e793c"/>
        <path id="Path_4" data-name="Path 4" d="M273.39,698.738a2.379,2.379,0,0,1,1.638.24.855.855,0,0,1,.3.95,2.906,2.906,0,0,1-.837,1.287,7.014,7.014,0,0,1-1.77,1.247,14.621,14.621,0,0,1-1.358.6,13.427,13.427,0,0,1-1.4.446,2.252,2.252,0,0,0-.129.223,2.015,2.015,0,0,1-.13.226q-.262.482-.578,1.1c-.211.411-.41.819-.6,1.229s-.347.814-.484,1.209a11.2,11.2,0,0,0-.317,1.082,1.931,1.931,0,0,0,.018,1.359.8.8,0,0,0,.727.393,2.8,2.8,0,0,0,1.154-.318,12.278,12.278,0,0,0,1.343-.744c.446-.287.875-.572,1.285-.858s.737-.515.987-.688q1.3-.859,2.886-2.05t3.521-2.608a.5.5,0,0,1,.373-.129.427.427,0,0,1,.3.148.474.474,0,0,1,.111.316.409.409,0,0,1-.223.334q-1.9,1.419-3.5,2.609t-2.907,2.087q-.595.41-1.657,1.136a17.483,17.483,0,0,1-2.217,1.287,7.181,7.181,0,0,1-2.179.686,1.486,1.486,0,0,1-1.545-.65,2.71,2.71,0,0,1-.447-1.773,9.537,9.537,0,0,1,.429-2.44,14.6,14.6,0,0,1,1.117-2.663,14.016,14.016,0,0,1,1.7-2.5,10.719,10.719,0,0,1,2.087-1.9A4.876,4.876,0,0,1,273.39,698.738Zm-.336,1.416a6.2,6.2,0,0,0-1.341,1.061,13.827,13.827,0,0,0-1.006,1.134,8.6,8.6,0,0,0,1.566-.67,7.574,7.574,0,0,0,1.507-.967,1.946,1.946,0,0,0,.578-.69c.051-.161-.043-.242-.279-.242A2.423,2.423,0,0,0,273.054,700.153Z" transform="translate(-216.596 -674.621)" fill="#9e793c"/>
        <path id="Path_5" data-name="Path 5" d="M289.086,710.637a5.438,5.438,0,0,1-1.154.652,1.9,1.9,0,0,1-1.082.15,1.2,1.2,0,0,1-.8-.617,3.285,3.285,0,0,1-.279-1.713,9.075,9.075,0,0,1,.393-2.292,10.779,10.779,0,0,1,.986-2.271,11.467,11.467,0,0,1,1.491-2.032,9.2,9.2,0,0,1,1.863-1.563,7.167,7.167,0,0,1,1.36-.654,4.137,4.137,0,0,1,1.36-.242,2.656,2.656,0,0,1,1.266.317,2.864,2.864,0,0,1,1.044,1.024,7.714,7.714,0,0,1,1.117-1.283,2.888,2.888,0,0,1,1.044-.671.549.549,0,0,1,.689.279,2.62,2.62,0,0,1,.057,1.563,8.792,8.792,0,0,1-.354,1.325c-.186.559-.385,1.159-.6,1.805s-.416,1.3-.616,1.974a9.552,9.552,0,0,0-.372,1.826,1.71,1.71,0,0,0,.3,1.453c.274.248.845.238,1.715-.037a9.762,9.762,0,0,0,2.459-1.267q1.3-.9,2.513-1.9t2.181-1.9c.643-.6,1.129-1.017,1.452-1.267a.525.525,0,0,1,.391-.128.515.515,0,0,1,.335.148.424.424,0,0,1,.131.316.419.419,0,0,1-.186.334q-.633.487-1.77,1.493t-2.515,2.1q-1.378,1.1-2.868,2.086a12.307,12.307,0,0,1-2.832,1.436,2.039,2.039,0,0,1-1.973-.077,2.3,2.3,0,0,1-.785-1.507,8.124,8.124,0,0,1,.019-2.253q.168-1.27.41-2.348c.162-.721.31-1.312.447-1.769s.179-.641.129-.544q-.631,1.006-1.4,2.127t-1.657,2.2a26.511,26.511,0,0,1-1.883,2.048A14.719,14.719,0,0,1,289.086,710.637Zm5.774-8.27q-.485-1.155-1.3-1.156a2.959,2.959,0,0,0-1.677.6,6.744,6.744,0,0,0-1.377,1.3,14.233,14.233,0,0,0-1.23,1.77,14.558,14.558,0,0,0-.949,1.92,12.442,12.442,0,0,0-.578,1.752c-.124.6-.074,1,.149,1.227s.634.114,1.229-.335a13.853,13.853,0,0,0,1.714-1.526,21.1,21.1,0,0,0,1.528-1.789q.707-.932,1.323-1.9T294.86,702.367Z" transform="translate(-223.425 -674.86)" fill="#9e793c"/>
        <path id="Path_6" data-name="Path 6" d="M327.5,707.073a9.82,9.82,0,0,1,.036-3.723q-.856,1.413-1.825,2.85a29.95,29.95,0,0,1-2.086,2.736,16.641,16.641,0,0,1-1.248,1.266,6.737,6.737,0,0,1-1.341.988,1.659,1.659,0,0,1-1.192.225c-.359-.088-.614-.427-.764-1.024a7.273,7.273,0,0,1-.2-2.423,16.22,16.22,0,0,1,.428-2.719q.337-1.382.783-2.7t.893-2.364a1.262,1.262,0,0,1,.615-.669,2.215,2.215,0,0,1,.93-.3,1.084,1.084,0,0,1,.746.168c.186.136.2.379.058.725a21.342,21.342,0,0,0-.8,2.051q-.39,1.154-.706,2.4t-.56,2.44a17.848,17.848,0,0,0-.316,2.124c-.05.5.055.738.316.725s.788-.49,1.583-1.433q.783-.894,1.564-1.957t1.509-2.2c.485-.757.938-1.518,1.36-2.291s.8-1.489,1.118-2.16a1.108,1.108,0,0,1,.671-.633,1.326,1.326,0,0,1,1.378.428.587.587,0,0,1,.15.542,8.509,8.509,0,0,1-.279,1.1q-.243.8-.466,1.789t-.373,1.99a5.816,5.816,0,0,0-.036,1.715q.147.858.707,1a2.052,2.052,0,0,0,1.322-.166,10.3,10.3,0,0,0,1.678-.913,19.806,19.806,0,0,0,1.75-1.287c.558-.457,1.073-.888,1.546-1.283s.82-.684,1.043-.859a.633.633,0,0,1,.41-.128.428.428,0,0,1,.3.149.459.459,0,0,1,.114.316.411.411,0,0,1-.225.334q-.558.45-1.47,1.193t-1.976,1.529a23.649,23.649,0,0,1-2.181,1.433,7.063,7.063,0,0,1-2.1.857,2.594,2.594,0,0,1-1.752-.186A2.422,2.422,0,0,1,327.5,707.073Z" transform="translate(-234.714 -674.763)" fill="#9e793c"/>
        <path id="Path_7" data-name="Path 7" d="M357.945,680.841q-.523,1.264-1.231,2.776T355.15,686.8c.6-.075,1.267-.142,2.013-.206s1.488-.111,2.234-.148,1.472-.043,2.181-.018a9.456,9.456,0,0,1,1.843.223,4.345,4.345,0,0,1,.82.317q.41.2.111.727a1.421,1.421,0,0,1-.614.428,8.518,8.518,0,0,1-1.044.371c-.384.113-.758.224-1.116.336s-.654.206-.877.281a.4.4,0,0,1-.389.017.46.46,0,0,1-.225-.243.407.407,0,0,1,.02-.318.586.586,0,0,1,.3-.277q.6-.225,1.229-.41c.422-.123.843-.248,1.268-.374a10.894,10.894,0,0,0-1.845-.165c-.707-.013-1.435,0-2.179.035s-1.492.092-2.237.165-1.415.14-2.011.19a1.5,1.5,0,0,1-.187.332,1.445,1.445,0,0,0-.185.337q-1.082,1.937-2.312,3.874t-2.5,3.727q-.3.745-.613,1.73a14.2,14.2,0,0,0-.485,1.975,8.619,8.619,0,0,0-.13,1.826,2.148,2.148,0,0,0,.466,1.341,1.744,1.744,0,0,0,1.359.522,6.491,6.491,0,0,0,2.534-.69,18.69,18.69,0,0,0,2.551-1.342q1.324-.819,2.608-1.769t2.5-1.956q1.213-1.007,2.216-1.863a.537.537,0,0,1,.393-.128.5.5,0,0,1,.316.128.466.466,0,0,1,.13.3.369.369,0,0,1-.168.333q-1.042.9-2.292,1.92t-2.57,1.991c-.882.649-1.775,1.249-2.681,1.808a21.466,21.466,0,0,1-2.628,1.4,10.244,10.244,0,0,1-3.65.99,3,3,0,0,1-2.106-.635,2.783,2.783,0,0,1-.857-1.845,10.08,10.08,0,0,1,.111-2.682,21.048,21.048,0,0,1,.783-3.13q.542-1.64,1.156-3.166c.41-1.016.814-1.956,1.211-2.812s.718-1.547.968-2.068q-1.528.189-3.129.389t-3.353.468a.441.441,0,0,1-.391-.094.414.414,0,0,1-.131-.3.509.509,0,0,1,.113-.316.53.53,0,0,1,.372-.188q1.9-.26,3.632-.483t3.333-.41q1.008-2.012,2.106-4.059a29.6,29.6,0,0,1,2.478-3.877,7.345,7.345,0,0,1,1.507-1.565c.461-.321.82-.435,1.082-.336s.384.431.371.99A8.269,8.269,0,0,1,357.945,680.841Zm-6.707,10.8q.558-.859,1.079-1.769t1.046-1.772a1.176,1.176,0,0,0,.055-.127,1.153,1.153,0,0,1,.055-.132.7.7,0,0,1-.223.037.693.693,0,0,0-.223.038c-.323.645-.633,1.275-.932,1.881S351.511,691.025,351.239,691.645Zm2.756-4.733q.9-1.637,1.7-3.316t1.435-3.352q-.97,1.639-1.864,3.334t-1.75,3.37a1.794,1.794,0,0,0,.242-.016A1.533,1.533,0,0,1,353.995,686.913Z" transform="translate(-243.146 -667.342)" fill="#9e793c"/>
        <path id="Path_8" data-name="Path 8" d="M372.936,702.082a3.015,3.015,0,0,0-.467.671c-.235.4-.5.843-.781,1.341s-.566,1-.839,1.526-.472.933-.6,1.229a1.374,1.374,0,0,0-.111.392.578.578,0,0,0,.036.373c.049.088.169.107.356.054a2.693,2.693,0,0,0,.837-.522,18.371,18.371,0,0,0,1.845-1.711q.874-.933,1.732-1.882t1.733-1.827a13.284,13.284,0,0,1,1.842-1.544,4.188,4.188,0,0,1,2.049-.95,1.183,1.183,0,0,1,1.1.519,2.939,2.939,0,0,1,.392,1.491,12.042,12.042,0,0,1-.094,1.974,17.4,17.4,0,0,1-.352,1.955q-.225.933-.41,1.455,1.489-.819,3.112-1.658t3.407-1.7a.521.521,0,0,1,.393-.055.48.48,0,0,1,.259.205.357.357,0,0,1,.038.318.519.519,0,0,1-.279.28q-2.05,1.008-3.876,1.955t-3.5,1.882q-.52,1.377-1.136,2.756t-1.321,2.719a40.392,40.392,0,0,1-4.229,6.613,28.942,28.942,0,0,1-4.229,4.358,13.751,13.751,0,0,1-3.856,2.313,6.661,6.661,0,0,1-3.056.481,2.4,2.4,0,0,1-1.823-1.078,3.024,3.024,0,0,1-.225-2.384,10.322,10.322,0,0,1,1.808-3.466,25.281,25.281,0,0,1,4.283-4.339,54.713,54.713,0,0,1,5.476-4.042q2.906-1.882,5.887-3.557c.074-.223.215-.609.428-1.155s.422-1.149.634-1.807.4-1.324.577-1.995a8.938,8.938,0,0,0,.3-1.7,1.119,1.119,0,0,0-.224-.912c-.175-.149-.51-.038-1.007.337a18.734,18.734,0,0,0-1.843,1.619q-.876.875-1.752,1.806t-1.769,1.826a17.239,17.239,0,0,1-1.9,1.641,4.323,4.323,0,0,1-1.806.893,1.069,1.069,0,0,1-1.285-.484,2.209,2.209,0,0,1-.186-1.4,8.612,8.612,0,0,1,.446-1.808,12.935,12.935,0,0,1,.8-1.789,14.439,14.439,0,0,1,.838-1.378,2.086,2.086,0,0,1,1.062-.781,2.432,2.432,0,0,1,1.08-.112.715.715,0,0,1,.6.371C373.414,701.611,373.284,701.834,372.936,702.082Zm3.166,10.99q.483-.857.895-1.752t.783-1.75q-2.646,1.565-5.234,3.24a52.965,52.965,0,0,0-4.937,3.615,21.859,21.859,0,0,0-4.695,4.919,6.1,6.1,0,0,0-1.229,3.372,1.407,1.407,0,0,0,1.454,1.341,5.728,5.728,0,0,0,3.39-1.175,22.976,22.976,0,0,0,4.582-4.172A37.678,37.678,0,0,0,376.1,713.072Z" transform="translate(-249.011 -674.799)" fill="#9e793c"/>
      </g>
      <g id="Group_3" data-name="Group 3" transform="translate(37.479)">
        <path id="Path_9" data-name="Path 9" d="M262.918,535.681a17.486,17.486,0,0,0-1.231,3.52H264.5s.791-2.815,1.5-3.52Z" transform="translate(-163.207 -513.337)" fill="#9e793c"/>
        <g id="Group_2" data-name="Group 2" transform="translate(95.55)">
          <path id="Path_10" data-name="Path 10" d="M403.88,501.84q1.437-.078,2.908-.076a29.654,29.654,0,0,1,2.987.15,47.254,47.254,0,0,1,8.2.567,39.541,39.541,0,0,1,7.595,1.926q1.965.681,3.779,1.513a31.579,31.579,0,0,1,3.627,1.968q1.362.828,2.721,1.85a12.714,12.714,0,0,1,2.419,2.378,6.447,6.447,0,0,1,1.021,2.082,3.4,3.4,0,0,1-.263,2.455,5.58,5.58,0,0,1-2.27,2.569,23.729,23.729,0,0,1-3.175,1.664A28.57,28.57,0,0,1,425.308,523a43.588,43.588,0,0,1-8.5.075,50.2,50.2,0,0,1-7.26-.376q-3.628-.456-7.179-1.057-7.79-1.363-15.344-2.8T371.679,515.9q-.9-.226-1.814-.377c-.605-.1-1.257-.225-1.963-.378-.152.152-.328.329-.53.529a3.464,3.464,0,0,1-.682.53.188.188,0,0,1-.3,0,.19.19,0,0,1,0-.3,5.29,5.29,0,0,1,.528-.454,4.506,4.506,0,0,0,.53-.452q-6.95-1.362-13.829-2.76T339.63,509.7q-4.756-.909-9.522-1.513t-9.523-1.21q-4.765-.6-9.526-.907t-9.521-.151a81.282,81.282,0,0,0-8.919.491,53.252,53.252,0,0,0-8.918,1.776,34.689,34.689,0,0,0-7.633,3.175,30.13,30.13,0,0,0-6.577,4.988,20.273,20.273,0,0,0-4.8,7.749,63.091,63.091,0,0,0-2.3,8.881.966.966,0,0,1-.3.566.522.522,0,0,1-.833-.114.8.8,0,0,1-.077-.6,58.582,58.582,0,0,1,1.818-6.955,31.172,31.172,0,0,1,4.039-7.255,28.149,28.149,0,0,1,5.936-5.9,31.68,31.68,0,0,1,7.37-3.892,54.143,54.143,0,0,1,8.048-2.306,71.73,71.73,0,0,1,9.033-1.1q4.573-.266,9.186-.077t9.222.681q4.609.492,9.144,1.1,5.674.678,11.262,1.548t11.266,1.928q5.138.907,10.2,1.966t10.205,2.115a43.4,43.4,0,0,1,5.214-3.666,60,60,0,0,1,5.67-2.985A65.393,65.393,0,0,1,391.03,503.8,79.223,79.223,0,0,1,403.88,501.84Zm26.759,15.87a3.712,3.712,0,0,0,1.208-2.72,5.177,5.177,0,0,0-.908-2.608,9.922,9.922,0,0,0-2.115-2.268c-.86-.68-1.663-1.271-2.418-1.776a35.979,35.979,0,0,0-7.371-3.4,43.809,43.809,0,0,0-8.652-1.927,52.6,52.6,0,0,0-9.6-.264,58.411,58.411,0,0,0-10.052,1.511,74.6,74.6,0,0,0-11.68,4.12,52.7,52.7,0,0,0-10.544,6.31q2.721.61,5.518,1.136t5.519,1.132q3.852.833,7.782,1.437t7.938,1.437q4.834.831,9.45,1.472a79.791,79.791,0,0,0,8.692.758,48.883,48.883,0,0,0,7.6-.339,19.938,19.938,0,0,0,6.16-1.74c.606-.3,1.221-.617,1.852-.945A5.18,5.18,0,0,0,430.639,517.71Zm4.455.152a3.69,3.69,0,0,0,1.21-2.721,5.156,5.156,0,0,0-.907-2.608,9.961,9.961,0,0,0-2.115-2.268q-1.286-1.02-2.42-1.775a38.809,38.809,0,0,0-3.968-2.079,32.576,32.576,0,0,0-4.422-1.627,37.026,37.026,0,0,1,6.048,2.949q1.358.833,2.721,1.853a12.807,12.807,0,0,1,2.417,2.379,6.4,6.4,0,0,1,1.021,2.079,3.423,3.423,0,0,1-.264,2.459,5.562,5.562,0,0,1-2.27,2.569,24.388,24.388,0,0,1-3.174,1.663,12.957,12.957,0,0,1-1.4.528c-.478.152-.944.3-1.4.456a19.722,19.722,0,0,0,5.442-1.588c.6-.3,1.221-.617,1.849-.946A5.08,5.08,0,0,0,435.095,517.862Z" transform="translate(-258.574 -501.764)" fill="#9e793c"/>
          <path id="Path_11" data-name="Path 11" d="M263.966,549.929a3.363,3.363,0,1,1-3.366-3.364A3.364,3.364,0,0,1,263.966,549.929Z" transform="translate(-257.24 -517.051)" fill="#9e793c"/>
        </g>
        <path id="Path_12" data-name="Path 12" d="M182.183,579.511H193.09l2.1,5.567H182.183v37.01h11.072v5.565H176.781V585.078h-2.866l-1.773-5.567h4.639v-15.2h16.474v5.4H182.183Z" transform="translate(-132.654 -523.107)" fill="#9e793c"/>
        <path id="Path_13" data-name="Path 13" d="M222.675,583.823l11.814,24.165a19.552,19.552,0,0,1,2.289,8.516,9.487,9.487,0,0,1-4.268,8.309,18.76,18.76,0,0,1-10.846,2.927h-7.772v-5.566h7.938q8.866,0,8.867-5.67,0-3.466-2.619-8.516l-11.566-24.165a19.58,19.58,0,0,1-1.608-7.092,14.527,14.527,0,0,1,2.825-8.66q2.679-3.506,7.9-3.506h7.443v5.588l-5.506-.184a7.442,7.442,0,0,0-4.959,1.71,6.587,6.587,0,0,0-2.3,4.64,12.431,12.431,0,0,0,.6,3.186,29.023,29.023,0,0,0,1.144,3A10.516,10.516,0,0,0,222.675,583.823Z" transform="translate(-146.899 -523.192)" fill="#9e793c"/>
        <path id="Path_14" data-name="Path 14" d="M263.283,627.654h-5.4V564.315h5.4Z" transform="translate(-161.908 -523.107)" fill="#9e793c"/>
        <path id="Path_15" data-name="Path 15" d="M402.165,627.646a31.514,31.514,0,0,1-16.2-4.36,32.368,32.368,0,0,1-11.8-11.824,31.557,31.557,0,0,1-4.35-16.165,31.929,31.929,0,0,1,4.35-16.289,32.265,32.265,0,0,1,11.8-11.866,31.509,31.509,0,0,1,16.2-4.361,31.858,31.858,0,0,1,16.289,4.361,32.219,32.219,0,0,1,11.865,11.866A31.86,31.86,0,0,1,434.68,595.3a31.441,31.441,0,0,1-4.37,16.165,32.423,32.423,0,0,1-11.866,11.824A31.808,31.808,0,0,1,402.165,627.646Zm.176-5.648a26.044,26.044,0,0,0,13.365-3.588,26.649,26.649,0,0,0,9.736-9.732A26.737,26.737,0,0,0,426.967,585a26.951,26.951,0,0,0-14.314-14.331,26.21,26.21,0,0,0-10.313-2.05,26.48,26.48,0,0,0-13.5,3.586,26.783,26.783,0,0,0-9.828,9.763,26.343,26.343,0,0,0,0,26.691,26.792,26.792,0,0,0,9.828,9.752A26.475,26.475,0,0,0,402.341,622Z" transform="translate(-200.101 -522.584)" fill="#9e793c"/>
        <path id="Path_16" data-name="Path 16" d="M144.182,564.107v5.619a26.848,26.848,0,0,0-14.31,3.669,23.762,23.762,0,0,0-9.008,9.65,27.942,27.942,0,0,0,0,25.687,23.863,23.863,0,0,0,9,9.649,26.768,26.768,0,0,0,14.321,3.683V627.6a34.3,34.3,0,0,1-13.756-2.613,28.724,28.724,0,0,1-10.087-7.125,30.5,30.5,0,0,1-6.1-10.188,34.4,34.4,0,0,1-2.041-11.726,34.985,34.985,0,0,1,2.041-11.85,30.613,30.613,0,0,1,6.058-10.219,28.5,28.5,0,0,1,10.1-7.135A34.386,34.386,0,0,1,144.182,564.107Z" transform="translate(-112.202 -523.036)" fill="#9e793c"/>
        <path id="Path_17" data-name="Path 17" d="M341.18,564.107v5.619a26.845,26.845,0,0,0-14.31,3.669,23.751,23.751,0,0,0-9.008,9.65,27.937,27.937,0,0,0,0,25.687,23.857,23.857,0,0,0,9,9.649,26.767,26.767,0,0,0,14.32,3.683V627.6a34.3,34.3,0,0,1-13.755-2.613,28.724,28.724,0,0,1-10.087-7.125,30.5,30.5,0,0,1-6.1-10.188,34.4,34.4,0,0,1-2.041-11.726,34.985,34.985,0,0,1,2.041-11.85,30.613,30.613,0,0,1,6.058-10.219,28.507,28.507,0,0,1,10.095-7.135A34.388,34.388,0,0,1,341.18,564.107Z" transform="translate(-179.419 -523.036)" fill="#9e793c"/>
      </g>
    </g>
  </g>
</svg>
